<svg width="133" height="36" viewBox="0 0 133 36" fill="none" xmlns="http://www.w3.org/2000/svg">
<path fill-rule="evenodd" clip-rule="evenodd" d="M5.5 0.717727C1.698 1.64309 0 4.09175 0 8.65466C0 12.4928 0.383 13.2395 3.25 14.9844C5.038 16.0725 7.457 16.9639 8.628 16.9659C11.242 16.9709 13.427 19.4106 12.643 21.449C11.973 23.1929 6.511 23.4834 2.565 21.986C0.181999 21.0816 0 21.2154 0 23.8657C0 27.1559 1.733 27.9155 9.295 27.9365C21.708 27.9724 22.691 13.6967 10.434 11.4018C5.712 10.5174 3.957 8.22741 6.538 6.3188C8.396 4.94423 11.336 5.01411 15.25 6.52543C16.676 7.07645 17 6.65221 17 4.2305C17 1.57321 16.604 1.19388 13.25 0.640864C9.2 -0.0279503 8.539 -0.020963 5.5 0.717727ZM79 13.9752V27.9504H82H85V13.9752V0H82H79V13.9752ZM30.714 8.69858C29.644 9.76668 29 9.95435 29 9.19769C29 8.5169 27.686 7.98584 26 7.98584H23V17.9681V27.9504H25.956H28.912L29.206 20.8181C29.435 15.2719 29.896 13.4402 31.278 12.5827C33.938 10.9336 34.967 13.3294 34.985 21.2124L35 27.9504H38H41V21.0846C41 13.9113 42.413 11.1572 45.487 12.3351C46.652 12.7813 47 14.642 47 20.4328V27.9504H50.103H53.205L52.853 19.5693C52.579 13.0688 52.073 10.718 50.595 9.08789C48.336 6.5973 45.288 6.39865 42.223 8.54185C40.211 9.94836 39.789 9.94836 37.777 8.54185C34.901 6.53042 32.841 6.57634 30.714 8.69858ZM64.25 8.65865C62.853 9.63192 62 9.80162 62 9.10585C62 8.48995 60.875 7.98584 59.5 7.98584H57V21.9611V35.9363H59.5C61.833 35.9363 62 35.6039 62 30.9451C62 26.2964 63.053 24.6144 64.5 26.9522C64.84 27.5012 66.588 27.9504 68.385 27.9504C74.398 27.9504 77.991 21.3561 76 13.9742C74.29 7.63746 69.094 5.28663 64.25 8.65865ZM103.11 8.38114C97.336 11.5755 96.189 20.307 100.923 25.0326C103.386 27.4913 104.645 27.9504 108.923 27.9504C113.658 27.9504 114 27.7837 114 25.4798C114 23.2618 113.69 23.0711 110.973 23.6131C105.403 24.7252 101.821 18.3295 105.331 13.538C106.323 12.1834 107.596 11.83 110.331 12.1485C113.571 12.5258 114 12.3202 114 10.3876C114 6.88379 107.86 5.7528 103.11 8.38114ZM119.223 8.54185C117.685 9.61695 117 11.1163 117 13.4102C117 17.3622 118.343 18.6539 123.578 19.74C125.971 20.2361 127.5 21.1196 127.5 22.006C127.5 23.112 126.236 23.4245 122.195 23.3167C117.308 23.1869 116.913 23.3446 117.195 25.3131C117.46 27.1718 118.248 27.4903 123.224 27.7498C130.936 28.1521 133 26.9352 133 21.985C133 17.6617 132.289 16.938 126.575 15.4426C124.415 14.8776 122.476 13.9043 122.268 13.2815C121.702 11.5855 125.118 10.8677 128.773 11.9139C131.746 12.7644 132 12.6556 132 10.5283C132 8.97708 131.261 8.02078 129.75 7.61649C125.808 6.56236 121.514 6.93969 119.223 8.54185ZM89 17.9681V27.9504H92H95V17.9681V7.98584H92H89V17.9681ZM70.058 14.6251C71.24 17.7306 70.136 21.8423 67.709 23.3706C65.235 24.9288 62.579 21.8433 62.7 17.5519C62.828 13.0688 63.587 11.9788 66.584 11.9788C68.331 11.9788 69.343 12.7494 70.058 14.6251Z" fill="white"/>
</svg>
