<svg width="306" height="352" viewBox="0 0 306 352" fill="none" xmlns="http://www.w3.org/2000/svg">
<path d="M481.119 271.292C481.189 271.292 481.246 271.349 481.246 271.419C481.246 271.489 481.189 271.546 481.119 271.546H457.429L472.014 274.792H481.119C481.189 274.792 481.246 274.849 481.246 274.919C481.245 274.989 481.189 275.045 481.119 275.046H473.156L481.146 276.824L481.192 276.844C481.232 276.873 481.254 276.924 481.243 276.975C481.231 277.027 481.19 277.063 481.141 277.072L481.091 277.071L471.989 275.046H437.598L452.086 278.673H481.119C481.189 278.673 481.246 278.73 481.246 278.8C481.246 278.87 481.189 278.926 481.119 278.927H453.1L469.381 283.003H481.119C481.189 283.003 481.246 283.06 481.246 283.13C481.246 283.2 481.189 283.256 481.119 283.257H470.396L481.15 285.949C481.218 285.966 481.259 286.035 481.242 286.103C481.225 286.171 481.156 286.212 481.089 286.195L469.351 283.257H430.728L446.829 287.864H481.119C481.189 287.864 481.246 287.921 481.246 287.991C481.246 288.061 481.189 288.118 481.119 288.118H447.715L466.041 293.362H481.119C481.189 293.362 481.246 293.419 481.246 293.489C481.246 293.559 481.189 293.616 481.119 293.616H466.928L481.155 297.687L481.199 297.711C481.237 297.742 481.256 297.794 481.242 297.844C481.222 297.912 481.152 297.951 481.085 297.931L466.005 293.616H422.095L440.116 299.633H481.119C481.189 299.633 481.246 299.69 481.246 299.76C481.246 299.83 481.189 299.886 481.119 299.886H440.877L461.719 306.845H481.119C481.189 306.846 481.246 306.902 481.246 306.972C481.246 307.042 481.189 307.099 481.119 307.099H462.48L481.159 313.336C481.225 313.358 481.262 313.43 481.24 313.497C481.218 313.563 481.145 313.599 481.079 313.577L461.678 307.099H410.922L431.219 315.231H481.119C481.189 315.231 481.245 315.288 481.246 315.358C481.246 315.428 481.189 315.485 481.119 315.485H431.853L455.86 325.103H481.119C481.189 325.103 481.245 325.16 481.246 325.23C481.246 325.3 481.189 325.357 481.119 325.357H456.494L481.167 335.242C481.232 335.268 481.263 335.343 481.237 335.408C481.217 335.457 481.171 335.486 481.122 335.487L481.072 335.478L455.81 325.357H395.808L418.848 336.897H481.119C481.189 336.897 481.246 336.954 481.246 337.024C481.246 337.094 481.189 337.151 481.119 337.151H419.355L447.47 351.233H481.119C481.189 351.233 481.246 351.29 481.246 351.36C481.246 351.43 481.189 351.487 481.119 351.487H447.977L481.175 368.115L481.215 368.146C481.247 368.184 481.255 368.238 481.232 368.285C481.208 368.332 481.16 368.358 481.111 368.355L481.062 368.342L447.412 351.487H374.253L400.519 369.031H481.119C481.189 369.031 481.246 369.088 481.246 369.158C481.245 369.228 481.189 369.285 481.119 369.285H400.899L434.48 391.715H481.119C481.189 391.715 481.246 391.772 481.246 391.842C481.246 391.912 481.189 391.968 481.119 391.969H434.861L479.252 421.618H481.119C481.189 421.618 481.246 421.675 481.246 421.745C481.246 421.815 481.189 421.872 481.119 421.872H479.631L481.19 422.913L481.225 422.948C481.253 422.989 481.254 423.045 481.225 423.089C481.196 423.132 481.144 423.152 481.095 423.142L481.048 423.124L479.174 421.872H370.766L411.65 462.844H481.119C481.189 462.844 481.246 462.901 481.246 462.97C481.246 463.04 481.189 463.097 481.119 463.097H411.903L480.505 531.846C480.528 531.869 480.543 531.901 480.543 531.936C480.542 532.006 480.486 532.063 480.416 532.063H-174.698C-174.736 532.063 -174.77 532.045 -174.793 532.018C-174.797 532.014 -174.799 532.008 -174.802 532.004C-174.806 531.997 -174.813 531.992 -174.816 531.984C-174.83 531.949 -174.827 531.91 -174.809 531.877C-174.803 531.866 -174.797 531.855 -174.788 531.846L-106.07 463.097H-174.837C-174.907 463.097 -174.964 463.041 -174.964 462.97C-174.964 462.9 -174.907 462.844 -174.837 462.844H-105.816L-64.8627 421.872H-173.269L-174.768 422.872C-174.826 422.91 -174.905 422.895 -174.944 422.837C-174.982 422.778 -174.967 422.7 -174.909 422.661L-173.726 421.872H-174.837C-174.907 421.872 -174.964 421.815 -174.964 421.745C-174.964 421.675 -174.907 421.618 -174.837 421.618H-173.345L-128.904 391.969H-174.837C-174.907 391.969 -174.964 391.912 -174.964 391.842C-174.964 391.772 -174.907 391.715 -174.837 391.715H-128.523L-94.9027 369.285H-174.837C-174.907 369.285 -174.964 369.228 -174.964 369.158C-174.964 369.088 -174.907 369.031 -174.837 369.031H-94.5219L-68.225 351.487H-141.384L-174.781 368.2L-174.829 368.213C-174.879 368.216 -174.927 368.19 -174.951 368.143C-174.982 368.081 -174.957 368.004 -174.894 367.972L-141.952 351.487H-174.837C-174.907 351.487 -174.964 351.43 -174.964 351.36C-174.964 351.29 -174.907 351.233 -174.837 351.233H-141.445L-113.305 337.151H-174.837C-174.907 337.151 -174.964 337.094 -174.964 337.024C-174.964 336.954 -174.907 336.897 -174.837 336.897H-112.797L-89.7377 325.357H-149.734L-174.79 335.389C-174.855 335.415 -174.929 335.384 -174.955 335.319C-174.981 335.254 -174.949 335.18 -174.884 335.154L-150.416 325.357H-174.837C-174.907 325.357 -174.964 325.3 -174.964 325.23C-174.964 325.16 -174.907 325.103 -174.837 325.103H-149.782L-125.76 315.485H-174.837C-174.907 315.485 -174.964 315.428 -174.964 315.358C-174.964 315.288 -174.907 315.231 -174.837 315.231H-125.125L-104.816 307.099H-155.579L-174.798 313.512C-174.865 313.535 -174.936 313.499 -174.958 313.432C-174.981 313.366 -174.945 313.294 -174.878 313.272L-156.378 307.099H-174.837C-174.907 307.099 -174.964 307.042 -174.964 306.972C-174.964 306.902 -174.907 306.845 -174.837 306.845H-155.618L-134.762 299.886H-174.837C-174.907 299.886 -174.964 299.83 -174.964 299.76C-174.964 299.689 -174.907 299.633 -174.837 299.633H-134L-115.969 293.616H-159.882L-174.803 297.884C-174.87 297.903 -174.941 297.864 -174.96 297.797C-174.98 297.729 -174.941 297.659 -174.873 297.639L-160.806 293.616H-174.837C-174.907 293.616 -174.964 293.559 -174.964 293.489C-174.964 293.419 -174.907 293.362 -174.837 293.362H-159.918L-141.582 288.118H-174.837C-174.907 288.118 -174.964 288.061 -174.964 287.991C-174.964 287.921 -174.907 287.864 -174.837 287.864H-140.695L-124.585 283.257H-163.203L-174.807 286.161C-174.875 286.178 -174.944 286.136 -174.961 286.068C-174.978 286 -174.937 285.932 -174.87 285.915L-164.247 283.257H-174.837C-174.907 283.257 -174.964 283.2 -174.964 283.13C-174.964 283.06 -174.907 283.003 -174.837 283.003H-163.233L-146.945 278.927H-174.837C-174.907 278.927 -174.964 278.87 -174.964 278.8C-174.964 278.73 -174.907 278.673 -174.837 278.673H-145.931L-131.438 275.046H-165.829L-174.811 277.044C-174.879 277.059 -174.947 277.016 -174.962 276.948C-174.978 276.88 -174.934 276.812 -174.866 276.797L-166.996 275.046H-174.837C-174.907 275.046 -174.964 274.989 -174.964 274.919C-174.964 274.849 -174.907 274.792 -174.837 274.792H-165.856L-151.267 271.546H-174.837C-174.907 271.546 -174.964 271.489 -174.964 271.419C-174.964 271.349 -174.907 271.292 -174.837 271.292H481.119ZM-174.393 531.809H-10.9994L23.3717 463.097H-105.711L-174.393 531.809ZM-10.7162 531.809H152.731L152.791 463.097H23.6549L-10.7162 531.809ZM152.985 531.809H316.433L282.18 463.097H153.045L152.985 531.809ZM316.717 531.809H480.109L411.545 463.097H282.464L316.717 531.809ZM-105.457 462.844H23.4986L43.9928 421.872H-64.5033L-105.457 462.844ZM23.7818 462.844H152.791L152.827 421.872H44.277L23.7818 462.844ZM153.045 462.844H282.054L261.63 421.872H153.081L153.045 462.844ZM282.339 462.844H411.292L370.408 421.872H261.914L282.339 462.844ZM-128.447 391.969L-172.888 421.618H-64.6088L-34.973 391.969H-128.447ZM-34.6137 391.969L-64.2494 421.618H44.1207L58.9518 391.969H-34.6137ZM59.235 391.969L44.4039 421.618H152.827L152.852 391.969H59.235ZM153.106 391.969L153.081 421.618H261.504L246.723 391.969H153.106ZM247.007 391.969L261.788 421.618H370.155L340.569 391.969H247.007ZM340.927 391.969L370.513 421.618H478.794L434.403 391.969H340.927ZM-128.066 391.715H-34.7191L-12.2992 369.285H-94.4457L-128.066 391.715ZM-34.3598 391.715H59.0787L70.2984 369.285H-11.9398L-34.3598 391.715ZM59.3619 391.715H152.852L152.872 369.285H70.5816L59.3619 391.715ZM153.106 391.715H246.596L235.416 369.285H153.126L153.106 391.715ZM246.88 391.715H340.316L317.934 369.285H235.699L246.88 391.715ZM340.674 391.715H434.023L400.442 369.285H318.293L340.674 391.715ZM-94.0648 369.031H-12.0453L5.49083 351.487H-67.768L-94.0648 369.031ZM-11.6859 369.031H70.4254L79.2008 351.487H5.8502L-11.6859 369.031ZM70.7086 369.031H152.872L152.887 351.487H79.485L70.7086 369.031ZM153.126 369.031H235.289L226.544 351.487H153.141L153.126 369.031ZM235.573 369.031H317.68L300.174 351.487H226.827L235.573 369.031ZM318.039 369.031H400.062L373.796 351.487H300.533L318.039 369.031ZM-140.876 351.233H-67.8441L-46.7367 337.151H-112.737L-140.876 351.233ZM-67.3871 351.233H5.74474L19.8209 337.151H-46.2797L-67.3871 351.233ZM6.10411 351.233H79.3277L86.3717 337.151H20.1803L6.10411 351.233ZM79.6119 351.233H152.887L152.9 337.151H86.6559L79.6119 351.233ZM153.141 351.233H226.417L219.397 337.151H153.154L153.141 351.233ZM226.7 351.233H299.922L285.87 337.151H219.68L226.7 351.233ZM300.28 351.233H373.415L352.332 337.151H286.228L300.28 351.233ZM373.872 351.233H446.905L418.79 337.151H352.789L373.872 351.233ZM-112.23 336.897H-46.3568L-29.059 325.357H-89.1693L-112.23 336.897ZM-45.8998 336.897H20.0748L31.61 325.357H-28.6019L-45.8998 336.897ZM20.4342 336.897H86.4987L92.2711 325.357H31.9693L20.4342 336.897ZM86.7828 336.897H152.9L152.91 325.357H92.5553L86.7828 336.897ZM153.154 336.897H219.271L213.518 325.357H153.164L153.154 336.897ZM219.554 336.897H285.617L274.101 325.357H213.801L219.554 336.897ZM285.975 336.897H351.952L334.674 325.357H274.46L285.975 336.897ZM352.408 336.897H418.283L395.243 325.357H335.13L352.408 336.897ZM-149.1 325.103H-89.2299L-70.0101 315.485H-125.078L-149.1 325.103ZM-88.6625 325.103H-28.6781L-14.2611 315.485H-69.4428L-88.6625 325.103ZM-28.2211 325.103H31.8639L41.4781 315.485H-13.8041L-28.2211 325.103ZM32.2233 325.103H92.3981L97.2096 315.485H41.8375L32.2233 325.103ZM92.6823 325.103H152.91L152.919 315.485H97.4938L92.6823 325.103ZM153.164 325.103H213.392L208.597 315.485H153.172L153.164 325.103ZM213.675 325.103H273.848L264.251 315.485H208.88L213.675 325.103ZM274.207 325.103H334.295L319.894 315.485H264.609L274.207 325.103ZM334.751 325.103H394.736L375.533 315.485H320.35L334.751 325.103ZM395.301 325.103H455.176L431.17 315.485H376.098L395.301 325.103ZM-124.444 315.231H-69.5033L-53.2533 307.099H-104.133L-124.444 315.231ZM-68.9349 315.231H-13.8803L-1.69179 307.099H-52.6859L-68.9349 315.231ZM-13.4232 315.231H41.732L49.86 307.099H-1.23476L-13.4232 315.231ZM42.0914 315.231H97.3365L101.404 307.099H50.2193L42.0914 315.231ZM97.6207 315.231H152.919L152.925 307.099H101.688L97.6207 315.231ZM153.172 315.231H208.47L204.417 307.099H153.179L153.172 315.231ZM208.754 315.231H263.997L255.882 307.099H204.7L208.754 315.231ZM264.355 315.231H319.514L307.339 307.099H256.241L264.355 315.231ZM319.97 315.231H375.026L358.791 307.099H307.796L319.97 315.231ZM375.591 315.231H430.536L410.239 307.099H359.356L375.591 315.231ZM-154.818 306.845H-104.181L-86.8012 299.886H-133.962L-154.818 306.845ZM-103.498 306.845H-52.7455L-38.8392 299.886H-86.1176L-103.498 306.845ZM-52.1781 306.845H-1.31093L9.11974 299.886H-38.2719L-52.1781 306.845ZM-0.853897 306.845H50.1139L57.0699 299.886H9.57677L-0.853897 306.845ZM50.4733 306.845H101.531L105.011 299.886H57.4293L50.4733 306.845ZM101.815 306.845H152.926L152.932 299.886H105.297L101.815 306.845ZM153.18 306.845H204.291L200.822 299.886H153.186L153.18 306.845ZM204.574 306.845H255.629L248.684 299.886H201.105L204.574 306.845ZM255.988 306.845H306.959L296.54 299.886H249.044L255.988 306.845ZM307.416 306.845H358.284L344.39 299.886H296.997L307.416 306.845ZM358.849 306.845H409.605L392.236 299.886H344.956L358.849 306.845ZM410.289 306.845H460.918L440.075 299.886H392.92L410.289 306.845ZM-133.201 299.633H-86.1664L-71.14 293.616H-115.169L-133.201 299.633ZM-85.4838 299.633H-38.3324L-26.309 293.616H-70.4564L-85.4838 299.633ZM-37.765 299.633H9.5006L18.5182 293.616H-25.7416L-37.765 299.633ZM9.95763 299.633H57.3238L63.3375 293.616H18.9752L9.95763 299.633ZM57.6832 299.633H105.138L108.148 293.616H63.6969L57.6832 299.633ZM105.423 299.633H152.933L152.938 293.616H108.433L105.423 299.633ZM153.187 299.633H200.695L197.696 293.616H153.192L153.187 299.633ZM200.978 299.633H248.431L242.427 293.616H197.979L200.978 299.633ZM248.791 299.633H296.16L287.152 293.616H242.787L248.791 299.633ZM296.617 299.633H343.883L331.871 293.616H287.609L296.617 299.633ZM344.449 299.633H391.602L376.585 293.616H332.436L344.449 299.633ZM392.286 299.633H439.314L421.294 293.616H377.268L392.286 299.633ZM-158.995 293.362H-115.208L-99.4916 288.118H-140.659L-158.995 293.362ZM-114.409 293.362H-70.5062L-57.4086 288.118H-98.6918L-114.409 293.362ZM-69.8226 293.362H-25.8021L-15.3226 288.118H-56.725L-69.8226 293.362ZM-25.2348 293.362H18.899L26.7594 288.118H-14.7553L-25.2348 293.362ZM19.3561 293.362H63.5914L68.8326 288.118H27.2164L19.3561 293.362ZM63.9508 293.362H108.275L110.898 288.118H69.192L63.9508 293.362ZM108.56 293.362H152.938L152.943 288.118H111.183L108.56 293.362ZM153.192 293.362H197.569L194.955 288.118H153.197L153.192 293.362ZM197.852 293.362H242.174L236.941 288.118H195.238L197.852 293.362ZM242.534 293.362H286.772L278.921 288.118H237.3L242.534 293.362ZM287.229 293.362H331.364L320.893 288.118H279.378L287.229 293.362ZM331.929 293.362H375.951L362.861 288.118H321.46L331.929 293.362ZM376.634 293.362H420.534L404.827 288.118H363.545L376.634 293.362ZM421.335 293.362H465.117L446.792 288.118H405.628L421.335 293.362ZM-139.771 287.864H-98.7308L-84.9222 283.257H-123.662L-139.771 287.864ZM-97.931 287.864H-56.7738L-45.267 283.257H-84.1224L-97.931 287.864ZM-56.0912 287.864H-14.8158L-5.60878 283.257H-44.5834L-56.0912 287.864ZM-14.2484 287.864H27.1402L34.0465 283.257H-5.0414L-14.2484 287.864ZM27.5973 287.864H69.0865L73.692 283.257H34.5035L27.5973 287.864ZM69.4459 287.864H111.025L113.33 283.257H74.0514L69.4459 287.864ZM111.31 287.864H152.943L152.947 283.257H113.615L111.31 287.864ZM153.197 287.864H194.829L192.532 283.257H153.201L153.197 287.864ZM195.112 287.864H236.688L232.09 283.257H192.815L195.112 287.864ZM237.047 287.864H278.541L271.642 283.257H232.45L237.047 287.864ZM278.998 287.864H320.386L311.187 283.257H272.099L278.998 287.864ZM320.953 287.864H362.227L350.727 283.257H311.754L320.953 287.864ZM362.911 287.864H404.066L390.266 283.257H351.411L362.911 287.864ZM404.867 287.864H445.905L429.804 283.257H391.067L404.867 287.864ZM-162.188 283.003H-123.698L-109.446 278.927H-145.9L-162.188 283.003ZM-122.774 283.003H-84.1615L-71.9447 278.927H-108.522L-122.774 283.003ZM-83.3617 283.003H-44.6322L-34.4516 278.927H-71.1449L-83.3617 283.003ZM-43.9486 283.003H-5.10097L3.04454 278.927H-33.768L-43.9486 283.003ZM-4.53456 283.003H34.4274L40.5367 278.927H3.61095L-4.53456 283.003ZM34.8844 283.003H73.9459L78.0201 278.927H40.9938L34.8844 283.003ZM74.3053 283.003H113.458L115.497 278.927H78.3795L74.3053 283.003ZM113.742 283.003H152.947L152.951 278.927H115.781L113.742 283.003ZM153.201 283.003H192.405L190.373 278.927H153.205L153.201 283.003ZM192.688 283.003H231.838L227.77 278.927H190.656L192.688 283.003ZM232.196 283.003H271.262L265.16 278.927H228.129L232.196 283.003ZM271.718 283.003H310.68L302.542 278.927H265.616L271.718 283.003ZM311.247 283.003H350.093L339.92 278.927H303.108L311.247 283.003ZM350.777 283.003H389.506L377.297 278.927H340.603L350.777 283.003ZM390.306 283.003H428.918L414.673 278.927H378.097L390.306 283.003ZM429.841 283.003H468.337L452.055 278.927H415.597L429.841 283.003ZM-144.886 278.673H-108.558L-95.8764 275.046H-130.393L-144.886 278.673ZM-107.634 278.673H-71.184L-60.3139 275.046H-94.9535L-107.634 278.673ZM-70.3842 278.673H-33.8178L-24.7592 275.046H-59.514L-70.3842 278.673ZM-33.1342 278.673H3.55138L10.7994 275.046H-24.0756L-33.1342 278.673ZM4.11778 278.673H40.9176L46.3541 275.046H11.3658L4.11778 278.673ZM41.3746 278.673H78.274L81.9 275.046H46.8111L41.3746 278.673ZM78.6334 278.673H115.624L117.437 275.046H82.2594L78.6334 278.673ZM115.908 278.673H152.951L152.954 275.046H117.721L115.908 278.673ZM153.205 278.673H190.247L188.438 275.046H153.208L153.205 278.673ZM190.53 278.673H227.516L223.897 275.046H188.721L190.53 278.673ZM227.876 278.673H264.78L259.349 275.046H224.256L227.876 278.673ZM265.236 278.673H302.035L294.794 275.046H259.805L265.236 278.673ZM302.601 278.673H339.286L330.233 275.046H295.36L302.601 278.673ZM339.969 278.673H376.538L365.674 275.046H330.917L339.969 278.673ZM377.337 278.673H413.786L401.112 275.046H366.473L377.337 278.673ZM414.71 278.673H451.041L436.553 275.046H402.036L414.71 278.673ZM-164.688 274.792H-130.423L-117.453 271.546H-150.096L-164.688 274.792ZM-129.378 274.792H-94.9887L-83.639 271.546H-116.408L-129.378 274.792ZM-94.0648 274.792H-59.5531L-49.8246 271.546H-82.7152L-94.0648 274.792ZM-58.7533 274.792H-24.1254L-16.018 271.546H-49.0248L-58.7533 274.792ZM-23.4408 274.792H11.3063L17.7926 271.546H-15.3334L-23.4408 274.792ZM11.8736 274.792H46.735L51.6002 271.546H18.36L11.8736 274.792ZM47.192 274.792H82.153L85.3981 271.546H52.0572L47.192 274.792ZM82.5123 274.792H117.564L119.188 271.546H85.7574L82.5123 274.792ZM117.848 274.792H152.954L152.957 271.546H119.472L117.848 274.792ZM153.208 274.792H188.312L186.694 271.546H153.211L153.208 274.792ZM188.595 274.792H223.644L220.405 271.546H186.977L188.595 274.792ZM224.003 274.792H258.969L254.109 271.546H220.763L224.003 274.792ZM259.425 274.792H294.287L287.806 271.546H254.565L259.425 274.792ZM294.853 274.792H329.599L321.497 271.546H288.372L294.853 274.792ZM330.283 274.792H364.914L355.191 271.546H322.18L330.283 274.792ZM365.714 274.792H400.225L388.881 271.546H355.991L365.714 274.792ZM401.149 274.792H435.539L422.573 271.546H389.805L401.149 274.792ZM436.585 274.792H470.848L456.259 271.546H423.619L436.585 274.792Z" fill="url(#paint0_linear_2_990)" fill-opacity="0.7"/>
<path d="M481.119 271.292C481.189 271.292 481.246 271.349 481.246 271.419C481.246 271.489 481.189 271.546 481.119 271.546H457.429L472.014 274.792H481.119C481.189 274.792 481.246 274.849 481.246 274.919C481.245 274.989 481.189 275.045 481.119 275.046H473.156L481.146 276.824L481.192 276.844C481.232 276.873 481.254 276.924 481.243 276.975C481.231 277.027 481.19 277.063 481.141 277.072L481.091 277.071L471.989 275.046H437.598L452.086 278.673H481.119C481.189 278.673 481.246 278.73 481.246 278.8C481.246 278.87 481.189 278.926 481.119 278.927H453.1L469.381 283.003H481.119C481.189 283.003 481.246 283.06 481.246 283.13C481.246 283.2 481.189 283.256 481.119 283.257H470.396L481.15 285.949C481.218 285.966 481.259 286.035 481.242 286.103C481.225 286.171 481.156 286.212 481.089 286.195L469.351 283.257H430.728L446.829 287.864H481.119C481.189 287.864 481.246 287.921 481.246 287.991C481.246 288.061 481.189 288.118 481.119 288.118H447.715L466.041 293.362H481.119C481.189 293.362 481.246 293.419 481.246 293.489C481.246 293.559 481.189 293.616 481.119 293.616H466.928L481.155 297.687L481.199 297.711C481.237 297.742 481.256 297.794 481.242 297.844C481.222 297.912 481.152 297.951 481.085 297.931L466.005 293.616H422.095L440.116 299.633H481.119C481.189 299.633 481.246 299.69 481.246 299.76C481.246 299.83 481.189 299.886 481.119 299.886H440.877L461.719 306.845H481.119C481.189 306.846 481.246 306.902 481.246 306.972C481.246 307.042 481.189 307.099 481.119 307.099H462.48L481.159 313.336C481.225 313.358 481.262 313.43 481.24 313.497C481.218 313.563 481.145 313.599 481.079 313.577L461.678 307.099H410.922L431.219 315.231H481.119C481.189 315.231 481.245 315.288 481.246 315.358C481.246 315.428 481.189 315.485 481.119 315.485H431.853L455.86 325.103H481.119C481.189 325.103 481.245 325.16 481.246 325.23C481.246 325.3 481.189 325.357 481.119 325.357H456.494L481.167 335.242C481.232 335.268 481.263 335.343 481.237 335.408C481.217 335.457 481.171 335.486 481.122 335.487L481.072 335.478L455.81 325.357H395.808L418.848 336.897H481.119C481.189 336.897 481.246 336.954 481.246 337.024C481.246 337.094 481.189 337.151 481.119 337.151H419.355L447.47 351.233H481.119C481.189 351.233 481.246 351.29 481.246 351.36C481.246 351.43 481.189 351.487 481.119 351.487H447.977L481.175 368.115L481.215 368.146C481.247 368.184 481.255 368.238 481.232 368.285C481.208 368.332 481.16 368.358 481.111 368.355L481.062 368.342L447.412 351.487H374.253L400.519 369.031H481.119C481.189 369.031 481.246 369.088 481.246 369.158C481.245 369.228 481.189 369.285 481.119 369.285H400.899L434.48 391.715H481.119C481.189 391.715 481.246 391.772 481.246 391.842C481.246 391.912 481.189 391.968 481.119 391.969H434.861L479.252 421.618H481.119C481.189 421.618 481.246 421.675 481.246 421.745C481.246 421.815 481.189 421.872 481.119 421.872H479.631L481.19 422.913L481.225 422.948C481.253 422.989 481.254 423.045 481.225 423.089C481.196 423.132 481.144 423.152 481.095 423.142L481.048 423.124L479.174 421.872H370.766L411.65 462.844H481.119C481.189 462.844 481.246 462.901 481.246 462.97C481.246 463.04 481.189 463.097 481.119 463.097H411.903L480.505 531.846C480.528 531.869 480.543 531.901 480.543 531.936C480.542 532.006 480.486 532.063 480.416 532.063H-174.698C-174.736 532.063 -174.77 532.045 -174.793 532.018C-174.797 532.014 -174.799 532.008 -174.802 532.004C-174.806 531.997 -174.813 531.992 -174.816 531.984C-174.83 531.949 -174.827 531.91 -174.809 531.877C-174.803 531.866 -174.797 531.855 -174.788 531.846L-106.07 463.097H-174.837C-174.907 463.097 -174.964 463.041 -174.964 462.97C-174.964 462.9 -174.907 462.844 -174.837 462.844H-105.816L-64.8627 421.872H-173.269L-174.768 422.872C-174.826 422.91 -174.905 422.895 -174.944 422.837C-174.982 422.778 -174.967 422.7 -174.909 422.661L-173.726 421.872H-174.837C-174.907 421.872 -174.964 421.815 -174.964 421.745C-174.964 421.675 -174.907 421.618 -174.837 421.618H-173.345L-128.904 391.969H-174.837C-174.907 391.969 -174.964 391.912 -174.964 391.842C-174.964 391.772 -174.907 391.715 -174.837 391.715H-128.523L-94.9027 369.285H-174.837C-174.907 369.285 -174.964 369.228 -174.964 369.158C-174.964 369.088 -174.907 369.031 -174.837 369.031H-94.5219L-68.225 351.487H-141.384L-174.781 368.2L-174.829 368.213C-174.879 368.216 -174.927 368.19 -174.951 368.143C-174.982 368.081 -174.957 368.004 -174.894 367.972L-141.952 351.487H-174.837C-174.907 351.487 -174.964 351.43 -174.964 351.36C-174.964 351.29 -174.907 351.233 -174.837 351.233H-141.445L-113.305 337.151H-174.837C-174.907 337.151 -174.964 337.094 -174.964 337.024C-174.964 336.954 -174.907 336.897 -174.837 336.897H-112.797L-89.7377 325.357H-149.734L-174.79 335.389C-174.855 335.415 -174.929 335.384 -174.955 335.319C-174.981 335.254 -174.949 335.18 -174.884 335.154L-150.416 325.357H-174.837C-174.907 325.357 -174.964 325.3 -174.964 325.23C-174.964 325.16 -174.907 325.103 -174.837 325.103H-149.782L-125.76 315.485H-174.837C-174.907 315.485 -174.964 315.428 -174.964 315.358C-174.964 315.288 -174.907 315.231 -174.837 315.231H-125.125L-104.816 307.099H-155.579L-174.798 313.512C-174.865 313.535 -174.936 313.499 -174.958 313.432C-174.981 313.366 -174.945 313.294 -174.878 313.272L-156.378 307.099H-174.837C-174.907 307.099 -174.964 307.042 -174.964 306.972C-174.964 306.902 -174.907 306.845 -174.837 306.845H-155.618L-134.762 299.886H-174.837C-174.907 299.886 -174.964 299.83 -174.964 299.76C-174.964 299.689 -174.907 299.633 -174.837 299.633H-134L-115.969 293.616H-159.882L-174.803 297.884C-174.87 297.903 -174.941 297.864 -174.96 297.797C-174.98 297.729 -174.941 297.659 -174.873 297.639L-160.806 293.616H-174.837C-174.907 293.616 -174.964 293.559 -174.964 293.489C-174.964 293.419 -174.907 293.362 -174.837 293.362H-159.918L-141.582 288.118H-174.837C-174.907 288.118 -174.964 288.061 -174.964 287.991C-174.964 287.921 -174.907 287.864 -174.837 287.864H-140.695L-124.585 283.257H-163.203L-174.807 286.161C-174.875 286.178 -174.944 286.136 -174.961 286.068C-174.978 286 -174.937 285.932 -174.87 285.915L-164.247 283.257H-174.837C-174.907 283.257 -174.964 283.2 -174.964 283.13C-174.964 283.06 -174.907 283.003 -174.837 283.003H-163.233L-146.945 278.927H-174.837C-174.907 278.927 -174.964 278.87 -174.964 278.8C-174.964 278.73 -174.907 278.673 -174.837 278.673H-145.931L-131.438 275.046H-165.829L-174.811 277.044C-174.879 277.059 -174.947 277.016 -174.962 276.948C-174.978 276.88 -174.934 276.812 -174.866 276.797L-166.996 275.046H-174.837C-174.907 275.046 -174.964 274.989 -174.964 274.919C-174.964 274.849 -174.907 274.792 -174.837 274.792H-165.856L-151.267 271.546H-174.837C-174.907 271.546 -174.964 271.489 -174.964 271.419C-174.964 271.349 -174.907 271.292 -174.837 271.292H481.119ZM-174.393 531.809H-10.9994L23.3717 463.097H-105.711L-174.393 531.809ZM-10.7162 531.809H152.731L152.791 463.097H23.6549L-10.7162 531.809ZM152.985 531.809H316.433L282.18 463.097H153.045L152.985 531.809ZM316.717 531.809H480.109L411.545 463.097H282.464L316.717 531.809ZM-105.457 462.844H23.4986L43.9928 421.872H-64.5033L-105.457 462.844ZM23.7818 462.844H152.791L152.827 421.872H44.277L23.7818 462.844ZM153.045 462.844H282.054L261.63 421.872H153.081L153.045 462.844ZM282.339 462.844H411.292L370.408 421.872H261.914L282.339 462.844ZM-128.447 391.969L-172.888 421.618H-64.6088L-34.973 391.969H-128.447ZM-34.6137 391.969L-64.2494 421.618H44.1207L58.9518 391.969H-34.6137ZM59.235 391.969L44.4039 421.618H152.827L152.852 391.969H59.235ZM153.106 391.969L153.081 421.618H261.504L246.723 391.969H153.106ZM247.007 391.969L261.788 421.618H370.155L340.569 391.969H247.007ZM340.927 391.969L370.513 421.618H478.794L434.403 391.969H340.927ZM-128.066 391.715H-34.7191L-12.2992 369.285H-94.4457L-128.066 391.715ZM-34.3598 391.715H59.0787L70.2984 369.285H-11.9398L-34.3598 391.715ZM59.3619 391.715H152.852L152.872 369.285H70.5816L59.3619 391.715ZM153.106 391.715H246.596L235.416 369.285H153.126L153.106 391.715ZM246.88 391.715H340.316L317.934 369.285H235.699L246.88 391.715ZM340.674 391.715H434.023L400.442 369.285H318.293L340.674 391.715ZM-94.0648 369.031H-12.0453L5.49083 351.487H-67.768L-94.0648 369.031ZM-11.6859 369.031H70.4254L79.2008 351.487H5.8502L-11.6859 369.031ZM70.7086 369.031H152.872L152.887 351.487H79.485L70.7086 369.031ZM153.126 369.031H235.289L226.544 351.487H153.141L153.126 369.031ZM235.573 369.031H317.68L300.174 351.487H226.827L235.573 369.031ZM318.039 369.031H400.062L373.796 351.487H300.533L318.039 369.031ZM-140.876 351.233H-67.8441L-46.7367 337.151H-112.737L-140.876 351.233ZM-67.3871 351.233H5.74474L19.8209 337.151H-46.2797L-67.3871 351.233ZM6.10411 351.233H79.3277L86.3717 337.151H20.1803L6.10411 351.233ZM79.6119 351.233H152.887L152.9 337.151H86.6559L79.6119 351.233ZM153.141 351.233H226.417L219.397 337.151H153.154L153.141 351.233ZM226.7 351.233H299.922L285.87 337.151H219.68L226.7 351.233ZM300.28 351.233H373.415L352.332 337.151H286.228L300.28 351.233ZM373.872 351.233H446.905L418.79 337.151H352.789L373.872 351.233ZM-112.23 336.897H-46.3568L-29.059 325.357H-89.1693L-112.23 336.897ZM-45.8998 336.897H20.0748L31.61 325.357H-28.6019L-45.8998 336.897ZM20.4342 336.897H86.4987L92.2711 325.357H31.9693L20.4342 336.897ZM86.7828 336.897H152.9L152.91 325.357H92.5553L86.7828 336.897ZM153.154 336.897H219.271L213.518 325.357H153.164L153.154 336.897ZM219.554 336.897H285.617L274.101 325.357H213.801L219.554 336.897ZM285.975 336.897H351.952L334.674 325.357H274.46L285.975 336.897ZM352.408 336.897H418.283L395.243 325.357H335.13L352.408 336.897ZM-149.1 325.103H-89.2299L-70.0101 315.485H-125.078L-149.1 325.103ZM-88.6625 325.103H-28.6781L-14.2611 315.485H-69.4428L-88.6625 325.103ZM-28.2211 325.103H31.8639L41.4781 315.485H-13.8041L-28.2211 325.103ZM32.2233 325.103H92.3981L97.2096 315.485H41.8375L32.2233 325.103ZM92.6823 325.103H152.91L152.919 315.485H97.4938L92.6823 325.103ZM153.164 325.103H213.392L208.597 315.485H153.172L153.164 325.103ZM213.675 325.103H273.848L264.251 315.485H208.88L213.675 325.103ZM274.207 325.103H334.295L319.894 315.485H264.609L274.207 325.103ZM334.751 325.103H394.736L375.533 315.485H320.35L334.751 325.103ZM395.301 325.103H455.176L431.17 315.485H376.098L395.301 325.103ZM-124.444 315.231H-69.5033L-53.2533 307.099H-104.133L-124.444 315.231ZM-68.9349 315.231H-13.8803L-1.69179 307.099H-52.6859L-68.9349 315.231ZM-13.4232 315.231H41.732L49.86 307.099H-1.23476L-13.4232 315.231ZM42.0914 315.231H97.3365L101.404 307.099H50.2193L42.0914 315.231ZM97.6207 315.231H152.919L152.925 307.099H101.688L97.6207 315.231ZM153.172 315.231H208.47L204.417 307.099H153.179L153.172 315.231ZM208.754 315.231H263.997L255.882 307.099H204.7L208.754 315.231ZM264.355 315.231H319.514L307.339 307.099H256.241L264.355 315.231ZM319.97 315.231H375.026L358.791 307.099H307.796L319.97 315.231ZM375.591 315.231H430.536L410.239 307.099H359.356L375.591 315.231ZM-154.818 306.845H-104.181L-86.8012 299.886H-133.962L-154.818 306.845ZM-103.498 306.845H-52.7455L-38.8392 299.886H-86.1176L-103.498 306.845ZM-52.1781 306.845H-1.31093L9.11974 299.886H-38.2719L-52.1781 306.845ZM-0.853897 306.845H50.1139L57.0699 299.886H9.57677L-0.853897 306.845ZM50.4733 306.845H101.531L105.011 299.886H57.4293L50.4733 306.845ZM101.815 306.845H152.926L152.932 299.886H105.297L101.815 306.845ZM153.18 306.845H204.291L200.822 299.886H153.186L153.18 306.845ZM204.574 306.845H255.629L248.684 299.886H201.105L204.574 306.845ZM255.988 306.845H306.959L296.54 299.886H249.044L255.988 306.845ZM307.416 306.845H358.284L344.39 299.886H296.997L307.416 306.845ZM358.849 306.845H409.605L392.236 299.886H344.956L358.849 306.845ZM410.289 306.845H460.918L440.075 299.886H392.92L410.289 306.845ZM-133.201 299.633H-86.1664L-71.14 293.616H-115.169L-133.201 299.633ZM-85.4838 299.633H-38.3324L-26.309 293.616H-70.4564L-85.4838 299.633ZM-37.765 299.633H9.5006L18.5182 293.616H-25.7416L-37.765 299.633ZM9.95763 299.633H57.3238L63.3375 293.616H18.9752L9.95763 299.633ZM57.6832 299.633H105.138L108.148 293.616H63.6969L57.6832 299.633ZM105.423 299.633H152.933L152.938 293.616H108.433L105.423 299.633ZM153.187 299.633H200.695L197.696 293.616H153.192L153.187 299.633ZM200.978 299.633H248.431L242.427 293.616H197.979L200.978 299.633ZM248.791 299.633H296.16L287.152 293.616H242.787L248.791 299.633ZM296.617 299.633H343.883L331.871 293.616H287.609L296.617 299.633ZM344.449 299.633H391.602L376.585 293.616H332.436L344.449 299.633ZM392.286 299.633H439.314L421.294 293.616H377.268L392.286 299.633ZM-158.995 293.362H-115.208L-99.4916 288.118H-140.659L-158.995 293.362ZM-114.409 293.362H-70.5062L-57.4086 288.118H-98.6918L-114.409 293.362ZM-69.8226 293.362H-25.8021L-15.3226 288.118H-56.725L-69.8226 293.362ZM-25.2348 293.362H18.899L26.7594 288.118H-14.7553L-25.2348 293.362ZM19.3561 293.362H63.5914L68.8326 288.118H27.2164L19.3561 293.362ZM63.9508 293.362H108.275L110.898 288.118H69.192L63.9508 293.362ZM108.56 293.362H152.938L152.943 288.118H111.183L108.56 293.362ZM153.192 293.362H197.569L194.955 288.118H153.197L153.192 293.362ZM197.852 293.362H242.174L236.941 288.118H195.238L197.852 293.362ZM242.534 293.362H286.772L278.921 288.118H237.3L242.534 293.362ZM287.229 293.362H331.364L320.893 288.118H279.378L287.229 293.362ZM331.929 293.362H375.951L362.861 288.118H321.46L331.929 293.362ZM376.634 293.362H420.534L404.827 288.118H363.545L376.634 293.362ZM421.335 293.362H465.117L446.792 288.118H405.628L421.335 293.362ZM-139.771 287.864H-98.7308L-84.9222 283.257H-123.662L-139.771 287.864ZM-97.931 287.864H-56.7738L-45.267 283.257H-84.1224L-97.931 287.864ZM-56.0912 287.864H-14.8158L-5.60878 283.257H-44.5834L-56.0912 287.864ZM-14.2484 287.864H27.1402L34.0465 283.257H-5.0414L-14.2484 287.864ZM27.5973 287.864H69.0865L73.692 283.257H34.5035L27.5973 287.864ZM69.4459 287.864H111.025L113.33 283.257H74.0514L69.4459 287.864ZM111.31 287.864H152.943L152.947 283.257H113.615L111.31 287.864ZM153.197 287.864H194.829L192.532 283.257H153.201L153.197 287.864ZM195.112 287.864H236.688L232.09 283.257H192.815L195.112 287.864ZM237.047 287.864H278.541L271.642 283.257H232.45L237.047 287.864ZM278.998 287.864H320.386L311.187 283.257H272.099L278.998 287.864ZM320.953 287.864H362.227L350.727 283.257H311.754L320.953 287.864ZM362.911 287.864H404.066L390.266 283.257H351.411L362.911 287.864ZM404.867 287.864H445.905L429.804 283.257H391.067L404.867 287.864ZM-162.188 283.003H-123.698L-109.446 278.927H-145.9L-162.188 283.003ZM-122.774 283.003H-84.1615L-71.9447 278.927H-108.522L-122.774 283.003ZM-83.3617 283.003H-44.6322L-34.4516 278.927H-71.1449L-83.3617 283.003ZM-43.9486 283.003H-5.10097L3.04454 278.927H-33.768L-43.9486 283.003ZM-4.53456 283.003H34.4274L40.5367 278.927H3.61095L-4.53456 283.003ZM34.8844 283.003H73.9459L78.0201 278.927H40.9938L34.8844 283.003ZM74.3053 283.003H113.458L115.497 278.927H78.3795L74.3053 283.003ZM113.742 283.003H152.947L152.951 278.927H115.781L113.742 283.003ZM153.201 283.003H192.405L190.373 278.927H153.205L153.201 283.003ZM192.688 283.003H231.838L227.77 278.927H190.656L192.688 283.003ZM232.196 283.003H271.262L265.16 278.927H228.129L232.196 283.003ZM271.718 283.003H310.68L302.542 278.927H265.616L271.718 283.003ZM311.247 283.003H350.093L339.92 278.927H303.108L311.247 283.003ZM350.777 283.003H389.506L377.297 278.927H340.603L350.777 283.003ZM390.306 283.003H428.918L414.673 278.927H378.097L390.306 283.003ZM429.841 283.003H468.337L452.055 278.927H415.597L429.841 283.003ZM-144.886 278.673H-108.558L-95.8764 275.046H-130.393L-144.886 278.673ZM-107.634 278.673H-71.184L-60.3139 275.046H-94.9535L-107.634 278.673ZM-70.3842 278.673H-33.8178L-24.7592 275.046H-59.514L-70.3842 278.673ZM-33.1342 278.673H3.55138L10.7994 275.046H-24.0756L-33.1342 278.673ZM4.11778 278.673H40.9176L46.3541 275.046H11.3658L4.11778 278.673ZM41.3746 278.673H78.274L81.9 275.046H46.8111L41.3746 278.673ZM78.6334 278.673H115.624L117.437 275.046H82.2594L78.6334 278.673ZM115.908 278.673H152.951L152.954 275.046H117.721L115.908 278.673ZM153.205 278.673H190.247L188.438 275.046H153.208L153.205 278.673ZM190.53 278.673H227.516L223.897 275.046H188.721L190.53 278.673ZM227.876 278.673H264.78L259.349 275.046H224.256L227.876 278.673ZM265.236 278.673H302.035L294.794 275.046H259.805L265.236 278.673ZM302.601 278.673H339.286L330.233 275.046H295.36L302.601 278.673ZM339.969 278.673H376.538L365.674 275.046H330.917L339.969 278.673ZM377.337 278.673H413.786L401.112 275.046H366.473L377.337 278.673ZM414.71 278.673H451.041L436.553 275.046H402.036L414.71 278.673ZM-164.688 274.792H-130.423L-117.453 271.546H-150.096L-164.688 274.792ZM-129.378 274.792H-94.9887L-83.639 271.546H-116.408L-129.378 274.792ZM-94.0648 274.792H-59.5531L-49.8246 271.546H-82.7152L-94.0648 274.792ZM-58.7533 274.792H-24.1254L-16.018 271.546H-49.0248L-58.7533 274.792ZM-23.4408 274.792H11.3063L17.7926 271.546H-15.3334L-23.4408 274.792ZM11.8736 274.792H46.735L51.6002 271.546H18.36L11.8736 274.792ZM47.192 274.792H82.153L85.3981 271.546H52.0572L47.192 274.792ZM82.5123 274.792H117.564L119.188 271.546H85.7574L82.5123 274.792ZM117.848 274.792H152.954L152.957 271.546H119.472L117.848 274.792ZM153.208 274.792H188.312L186.694 271.546H153.211L153.208 274.792ZM188.595 274.792H223.644L220.405 271.546H186.977L188.595 274.792ZM224.003 274.792H258.969L254.109 271.546H220.763L224.003 274.792ZM259.425 274.792H294.287L287.806 271.546H254.565L259.425 274.792ZM294.853 274.792H329.599L321.497 271.546H288.372L294.853 274.792ZM330.283 274.792H364.914L355.191 271.546H322.18L330.283 274.792ZM365.714 274.792H400.225L388.881 271.546H355.991L365.714 274.792ZM401.149 274.792H435.539L422.573 271.546H389.805L401.149 274.792ZM436.585 274.792H470.848L456.259 271.546H423.619L436.585 274.792Z" fill="url(#paint1_linear_2_990)"/>
<g style="mix-blend-mode:screen" filter="url(#filter0_f_2_990)">
<path d="M115.248 259.804C227.921 -58.8483 470.471 -210.141 531.311 -252.121L-244.279 -12.0206L-130.201 669.188C36.6218 630.836 8.77479 560.922 115.248 259.804Z" fill="url(#paint2_radial_2_990)" fill-opacity="0.25"/>
</g>
<circle cx="167.446" cy="56.4749" r="1.08797" transform="rotate(-180 167.446 56.4749)" fill="#EE7639" fill-opacity="0.15"/>
<circle cx="202.259" cy="47.7719" r="1.08797" transform="rotate(-180 202.259 47.7719)" fill="#EE7639"/>
<circle cx="48.5467" cy="53.8528" r="1.08797" transform="rotate(-180 48.5467 53.8528)" fill="#EE7639" fill-opacity="0.3"/>
<circle cx="30.9201" cy="160.503" r="1.63173" transform="rotate(-180 30.9201 160.503)" fill="#EE7639" fill-opacity="0.3"/>
<circle cx="102.993" cy="180.347" r="1.63173" transform="rotate(-180 102.993 180.347)" fill="#EE7639" fill-opacity="0.3"/>
<circle cx="130.277" cy="51.2167" r="1.63173" transform="rotate(-180 130.277 51.2167)" fill="#EE7639" fill-opacity="0.15"/>
<circle cx="57.7513" cy="197.718" r="1.63173" transform="rotate(-180 57.7513 197.718)" fill="#EE7639" fill-opacity="0.1"/>
<circle cx="94.4433" cy="166.636" r="1.63173" transform="rotate(-180 94.4433 166.636)" fill="#EE7639" fill-opacity="0.15"/>
<circle cx="57.5522" cy="90.6932" r="1.63173" transform="rotate(-180 57.5522 90.6932)" fill="#EE7639" fill-opacity="0.1"/>
<circle cx="26.5339" cy="69.0812" r="1.63173" transform="rotate(-180 26.5339 69.0812)" fill="#EE7639" fill-opacity="0.3"/>
<circle cx="91.113" cy="20.756" r="1.63173" transform="rotate(-180 91.113 20.756)" fill="#EE7639" fill-opacity="0.772549"/>
<circle cx="259.735" cy="222.74" r="0.54376" transform="rotate(-180 259.735 222.74)" fill="#EE7639" fill-opacity="0.15"/>
<circle cx="210.298" cy="198.047" r="0.54376" transform="rotate(-180 210.298 198.047)" fill="#EE7639" fill-opacity="0.3"/>
<circle cx="263.845" cy="155.477" r="0.54376" transform="rotate(-180 263.845 155.477)" fill="#EE7639" fill-opacity="0.1"/>
<circle cx="135.547" cy="107.014" r="0.54376" transform="rotate(-180 135.547 107.014)" fill="#EE7639" fill-opacity="0.3"/>
<circle cx="255.007" cy="181.02" r="0.54376" transform="rotate(-180 255.007 181.02)" fill="#EE7639"/>
<circle cx="99.3887" cy="188.046" r="0.54376" transform="rotate(-180 99.3887 188.046)" fill="#EE7639" fill-opacity="0.1"/>
<circle cx="83.116" cy="39.6713" r="0.54376" transform="rotate(-180 83.116 39.6713)" fill="#EE7639" fill-opacity="0.15"/>
<circle cx="98.7855" cy="131.864" r="0.54376" transform="rotate(-180 98.7855 131.864)" fill="#EE7639" fill-opacity="0.1"/>
<circle cx="268.438" cy="76.2379" r="0.54376" transform="rotate(-180 268.438 76.2379)" fill="#EE7639" fill-opacity="0.3"/>
<circle cx="196.376" cy="237.18" r="0.54376" transform="rotate(-180 196.376 237.18)" fill="#EE7639" fill-opacity="0.3"/>
<circle cx="191.347" cy="93.9955" r="0.54376" transform="rotate(-180 191.347 93.9955)" fill="#EE7639" fill-opacity="0.772549"/>
<circle cx="285.844" cy="115.402" r="0.54376" transform="rotate(-180 285.844 115.402)" fill="#EE7639" fill-opacity="0.15"/>
<circle cx="33.4551" cy="119.753" r="0.54376" transform="rotate(-180 33.4551 119.753)" fill="#EE7639" fill-opacity="0.1"/>
<circle cx="65.0768" cy="152.05" r="0.54376" transform="rotate(-180 65.0768 152.05)" fill="#EE7639" fill-opacity="0.3"/>
<circle cx="240.069" cy="22.103" r="0.54376" transform="rotate(-180 240.069 22.103)" fill="#EE7639" fill-opacity="0.1"/>
<circle cx="190.14" cy="157.873" r="0.54376" transform="rotate(-180 190.14 157.873)" fill="#EE7639" fill-opacity="0.15"/>
<circle cx="74.0695" cy="54.4802" r="0.54376" transform="rotate(-180 74.0695 54.4802)" fill="#EE7639" fill-opacity="0.3"/>
<circle cx="190.105" cy="83.3344" r="0.54376" transform="rotate(-180 190.105 83.3344)" fill="#EE7639" fill-opacity="0.1"/>
<circle cx="206.557" cy="89.8862" r="0.54376" transform="rotate(-180 206.557 89.8862)" fill="#EE7639" fill-opacity="0.3"/>
<circle cx="30.554" cy="102.347" r="0.54376" transform="rotate(-180 30.554 102.347)" fill="#EE7639" fill-opacity="0.15"/>
<circle cx="173.419" cy="11.5616" r="0.54376" transform="rotate(-180 173.419 11.5616)" fill="#EE7639" fill-opacity="0.1"/>
<circle cx="165.581" cy="49.0447" r="0.54376" transform="rotate(-180 165.581 49.0447)" fill="#EE7639" fill-opacity="0.1"/>
<circle cx="26.2025" cy="216.938" r="0.54376" transform="rotate(-180 26.2025 216.938)" fill="#EE7639" fill-opacity="0.3"/>
<circle cx="62.004" cy="15.0078" r="0.54376" transform="rotate(-180 62.004 15.0078)" fill="#EE7639" fill-opacity="0.1"/>
<path d="M283.487 43.0577L282.545 41.4258L284.43 41.4258L283.487 43.0577Z" fill="#EE7639"/>
<circle cx="92.926" cy="92.1935" r="0.54376" transform="rotate(-180 92.926 92.1935)" fill="#EE7639" fill-opacity="0.1"/>
<path d="M19.4942 38.7062L18.552 37.0742L20.4364 37.0742L19.4942 38.7062Z" fill="#EE7639" fill-opacity="0.1"/>
<path d="M20.5884 11.9216L20.3576 11.0645L19.5004 10.8337L20.3576 10.6029L20.5884 9.74569L20.8192 10.6029L21.6763 10.8337L20.8192 11.0645L20.5884 11.9216Z" fill="#EE7639" fill-opacity="0.1"/>
<path d="M237.071 51.7609L236.84 50.9037L235.983 50.6729L236.84 50.4421L237.071 49.5849L237.302 50.4421L238.159 50.6729L237.302 50.9037L237.071 51.7609Z" fill="#EE7639"/>
<path d="M154.683 98.0723L154.453 97.2151L153.595 96.9843L154.453 96.7535L154.683 95.8963L154.914 96.7535L155.771 96.9843L154.914 97.2151L154.683 98.0723Z" fill="#EE7639" fill-opacity="0.1"/>
<path d="M206.61 18.399L206.379 17.5419L205.522 17.3111L206.379 17.0803L206.61 16.2231L206.841 17.0803L207.698 17.3111L206.841 17.5419L206.61 18.399Z" fill="#EE7639" fill-opacity="0.8"/>
<path d="M191.56 175.888L191.329 175.031L190.472 174.8L191.329 174.569L191.56 173.712L191.79 174.569L192.648 174.8L191.79 175.031L191.56 175.888Z" fill="#EE7639" fill-opacity="0.15"/>
<path d="M98.6553 68.9348L98.4245 68.0776L97.5674 67.8468L98.4245 67.6161L98.6553 66.7589L98.8861 67.6161L99.7433 67.8468L98.8861 68.0776L98.6553 68.9348Z" fill="#EE7639" fill-opacity="0.3"/>
<circle cx="282.943" cy="82.04" r="0.54376" transform="rotate(-180 282.943 82.04)" fill="#EE7639" fill-opacity="0.3"/>
<path d="M294.106 178.962C281.772 133.344 243.016 32.6705 186.665 -5.07823" stroke="url(#paint3_linear_2_990)" stroke-opacity="0.1" stroke-width="2.90102"/>
<path d="M107.042 -9.73147C106.686 26.5097 80.9068 116.833 -19.3595 188.195" stroke="url(#paint4_linear_2_990)" stroke-opacity="0.1" stroke-width="2.90102"/>
<defs>
<filter id="filter0_f_2_990" x="-351.58" y="-359.423" width="990.193" height="1135.91" filterUnits="userSpaceOnUse" color-interpolation-filters="sRGB">
<feFlood flood-opacity="0" result="BackgroundImageFix"/>
<feBlend mode="normal" in="SourceGraphic" in2="BackgroundImageFix" result="shape"/>
<feGaussianBlur stdDeviation="53.6506" result="effect1_foregroundBlur_2_990"/>
</filter>
<linearGradient id="paint0_linear_2_990" x1="153.141" y1="285.293" x2="153.141" y2="489.09" gradientUnits="userSpaceOnUse">
<stop offset="0.0640087" stop-color="white" stop-opacity="0"/>
<stop offset="0.258526" stop-color="white" stop-opacity="0.8"/>
<stop offset="0.486011" stop-color="white" stop-opacity="0"/>
<stop offset="1" stop-color="white" stop-opacity="0"/>
</linearGradient>
<linearGradient id="paint1_linear_2_990" x1="-5.52738" y1="329.534" x2="307.783" y2="329.534" gradientUnits="userSpaceOnUse">
<stop stop-color="#0D1E33"/>
<stop offset="0.52582" stop-color="#0D1E33" stop-opacity="0"/>
<stop offset="1" stop-color="#0D1E33"/>
</linearGradient>
<radialGradient id="paint2_radial_2_990" cx="0" cy="0" r="1" gradientUnits="userSpaceOnUse" gradientTransform="translate(325.825 185.902) rotate(-150.409) scale(445.283 445.296)">
<stop offset="0.409332" stop-color="#EE7639"/>
<stop offset="1" stop-opacity="0"/>
<stop offset="1" stop-color="#2D2E32" stop-opacity="0"/>
</radialGradient>
<linearGradient id="paint3_linear_2_990" x1="229.233" y1="-9.97674" x2="281.064" y2="136.472" gradientUnits="userSpaceOnUse">
<stop stop-color="white"/>
<stop offset="1" stop-color="white" stop-opacity="0"/>
</linearGradient>
<linearGradient id="paint4_linear_2_990" x1="107.69" y1="-13.4865" x2="30.798" y2="184.283" gradientUnits="userSpaceOnUse">
<stop stop-color="white"/>
<stop offset="1" stop-color="white" stop-opacity="0"/>
</linearGradient>
</defs>
</svg>
