<svg width="271" height="125" viewBox="0 0 271 125" fill="none" xmlns="http://www.w3.org/2000/svg">
<g filter="url(#filter0_d_3_2649)">
<g clip-path="url(#clip0_3_2649)">
<rect x="38.0188" y="78.1069" width="48" height="194" rx="24" transform="rotate(-90 38.0188 78.1069)" fill="#EE7639"/>
<g style="mix-blend-mode:screen" filter="url(#filter1_f_3_2649)">
<path d="M104.218 243.046C196.021 -16.5821 393.643 -139.85 443.214 -174.055L-188.713 21.5717L-95.7655 576.599C40.1563 545.351 17.4674 488.387 104.218 243.046Z" fill="url(#paint0_radial_3_2649)" fill-opacity="0.25"/>
</g>
<circle cx="146.747" cy="77.3792" r="0.886442" transform="rotate(-180 146.747 77.3792)" fill="#EE7639" fill-opacity="0.15"/>
<circle cx="175.111" cy="70.288" r="0.886442" transform="rotate(-180 175.111 70.288)" fill="#EE7639"/>
<circle cx="49.8719" cy="75.2428" r="0.886442" transform="rotate(-180 49.8719 75.2428)" fill="#EE7639" fill-opacity="0.3"/>
<circle cx="116.463" cy="73.0948" r="1.32948" transform="rotate(-180 116.463 73.0948)" fill="#EE7639" fill-opacity="0.15"/>
<circle cx="84.5531" cy="48.2764" r="1.32948" transform="rotate(-180 84.5531 48.2764)" fill="#EE7639" fill-opacity="0.772549"/>
<circle cx="78.0379" cy="63.6879" r="0.443038" transform="rotate(-180 78.0379 63.6879)" fill="#EE7639" fill-opacity="0.15"/>
<circle cx="205.918" cy="49.3739" r="0.443038" transform="rotate(-180 205.918 49.3739)" fill="#EE7639" fill-opacity="0.1"/>
<circle cx="70.6663" cy="75.7539" r="0.443038" transform="rotate(-180 70.6663 75.7539)" fill="#EE7639" fill-opacity="0.3"/>
<circle cx="151.613" cy="40.7852" r="0.443038" transform="rotate(-180 151.613 40.7852)" fill="#EE7639" fill-opacity="0.1"/>
<circle cx="145.227" cy="71.3251" r="0.443038" transform="rotate(-180 145.227 71.3251)" fill="#EE7639" fill-opacity="0.1"/>
<circle cx="60.8365" cy="43.5927" r="0.443038" transform="rotate(-180 60.8365 43.5927)" fill="#EE7639" fill-opacity="0.1"/>
<path d="M203.475 73.5382L203.287 72.8398L202.589 72.6518L203.287 72.4637L203.475 71.7653L203.663 72.4637L204.362 72.6518L203.663 72.8398L203.475 73.5382Z" fill="#EE7639"/>
<path d="M178.657 46.3562L178.469 45.6578L177.77 45.4698L178.469 45.2817L178.657 44.5833L178.845 45.2817L179.543 45.4698L178.845 45.6578L178.657 46.3562Z" fill="#EE7639" fill-opacity="0.8"/>
<path d="M249.945 177.178C239.896 140.01 208.319 57.984 162.406 27.2275" stroke="url(#paint1_linear_3_2649)" stroke-opacity="0.1" stroke-width="2.36366"/>
<path d="M97.5314 23.4364C97.2412 52.9645 76.2374 126.557 -5.45643 184.701" stroke="url(#paint2_linear_3_2649)" stroke-opacity="0.1" stroke-width="2.36366"/>
</g>
</g>
<defs>
<filter id="filter0_d_3_2649" x="0.0187988" y="0.106934" width="270" height="124" filterUnits="userSpaceOnUse" color-interpolation-filters="sRGB">
<feFlood flood-opacity="0" result="BackgroundImageFix"/>
<feColorMatrix in="SourceAlpha" type="matrix" values="0 0 0 0 0 0 0 0 0 0 0 0 0 0 0 0 0 0 127 0" result="hardAlpha"/>
<feMorphology radius="2" operator="erode" in="SourceAlpha" result="effect1_dropShadow_3_2649"/>
<feOffset dy="8"/>
<feGaussianBlur stdDeviation="20"/>
<feColorMatrix type="matrix" values="0 0 0 0 0.0235294 0 0 0 0 0.0470588 0 0 0 0 0.231373 0 0 0 0.08 0"/>
<feBlend mode="normal" in2="BackgroundImageFix" result="effect1_dropShadow_3_2649"/>
<feBlend mode="normal" in="SourceGraphic" in2="effect1_dropShadow_3_2649" result="shape"/>
</filter>
<filter id="filter1_f_3_2649" x="-276.139" y="-261.481" width="806.778" height="925.505" filterUnits="userSpaceOnUse" color-interpolation-filters="sRGB">
<feFlood flood-opacity="0" result="BackgroundImageFix"/>
<feBlend mode="normal" in="SourceGraphic" in2="BackgroundImageFix" result="shape"/>
<feGaussianBlur stdDeviation="43.7128" result="effect1_foregroundBlur_3_2649"/>
</filter>
<radialGradient id="paint0_radial_3_2649" cx="0" cy="0" r="1" gradientUnits="userSpaceOnUse" gradientTransform="translate(275.79 182.832) rotate(-150.409) scale(362.803 362.813)">
<stop offset="0.409332" stop-color="#EE7639"/>
<stop offset="1" stop-opacity="0"/>
<stop offset="1" stop-color="#2D2E32" stop-opacity="0"/>
</radialGradient>
<linearGradient id="paint1_linear_3_2649" x1="197.088" y1="23.2364" x2="239.319" y2="142.558" gradientUnits="userSpaceOnUse">
<stop stop-color="white"/>
<stop offset="1" stop-color="white" stop-opacity="0"/>
</linearGradient>
<linearGradient id="paint2_linear_3_2649" x1="98.0595" y1="20.3769" x2="35.4104" y2="181.513" gradientUnits="userSpaceOnUse">
<stop stop-color="white"/>
<stop offset="1" stop-color="white" stop-opacity="0"/>
</linearGradient>
<clipPath id="clip0_3_2649">
<rect x="38.0188" y="78.1069" width="48" height="194" rx="24" transform="rotate(-90 38.0188 78.1069)" fill="white"/>
</clipPath>
</defs>
</svg>
