<svg width="32" height="29" viewBox="0 0 32 29" fill="none" xmlns="http://www.w3.org/2000/svg">
<path d="M15.9618 0.5C24.4231 0.5 31.2828 7.3591 31.2831 15.8203C31.2831 18.1294 30.7701 20.3186 29.8553 22.2822C26.2513 23.0108 21.8556 24.2643 18.9393 26.3447C15.3053 28.9372 9.72246 28.3492 6.14148 27.5791C2.78021 24.7687 0.641479 20.5444 0.641479 15.8203C0.641719 7.35925 7.50073 0.500239 15.9618 0.5Z" fill="#EE7639"/>
<mask id="mask0_2_1836" style="mask-type:luminance" maskUnits="userSpaceOnUse" x="0" y="0" width="32" height="29">
<path d="M15.9618 0.5C24.4231 0.5 31.2828 7.3591 31.2831 15.8203C31.2831 18.1294 30.7701 20.3186 29.8553 22.2822C26.2513 23.0108 21.8556 24.2643 18.9393 26.3447C15.3053 28.9372 9.72246 28.3492 6.14148 27.5791C2.78021 24.7687 0.641479 20.5444 0.641479 15.8203C0.641719 7.35925 7.50073 0.500239 15.9618 0.5Z" fill="white"/>
</mask>
<g mask="url(#mask0_2_1836)">
</g>
<path d="M15.6849 10.4319L20.1171 14.6626L15.6849 18.8933" stroke="#0D1E33" stroke-linecap="round" stroke-linejoin="round"/>
<path d="M20.1174 14.6626L11.49 14.6626" stroke="#0D1E33" stroke-width="0.924367" stroke-linecap="round" stroke-linejoin="round"/>
</svg>
