<svg width="31" height="29" viewBox="0 0 31 29" fill="none" xmlns="http://www.w3.org/2000/svg">
<path d="M15.3212 0.5C6.85993 0.5 0.000146866 7.3591 -9.15527e-05 15.8203C-9.15527e-05 18.1294 0.512846 20.3186 1.42764 22.2822C5.03174 23.0108 9.4274 24.2643 12.3437 26.3447C15.9777 28.9372 21.5605 28.3492 25.1415 27.5791C28.5028 24.7687 30.6415 20.5444 30.6415 15.8203C30.6413 7.35925 23.7823 0.500239 15.3212 0.5Z" fill="#EE7639"/>
<mask id="mask0_2_1820" style="mask-type:luminance" maskUnits="userSpaceOnUse" x="0" y="0" width="31" height="29">
<path d="M7.35049 0.5C3.29108 0.5 -9.15527e-05 3.79117 -9.15527e-05 7.85059V22.0146C3.80242 22.6861 9.02891 23.98 12.3437 26.3447C18.051 30.4162 28.5658 26.6455 28.5819 26.6396L28.7216 28.7441C29.914 27.4376 30.6415 25.6993 30.6415 23.791V7.85059C30.6415 3.79117 27.3503 0.5 23.2909 0.5H7.35049Z" fill="white"/>
</mask>
<g mask="url(#mask0_2_1820)">
</g>
<path d="M15.5981 10.4319L11.1659 14.6626L15.5981 18.8933" stroke="#0D1E33" stroke-linecap="round" stroke-linejoin="round"/>
<path d="M11.1657 14.6626L19.793 14.6626" stroke="#0D1E33" stroke-width="0.924367" stroke-linecap="round" stroke-linejoin="round"/>
</svg>
