<svg width="206" height="219" viewBox="0 0 206 219" fill="none" xmlns="http://www.w3.org/2000/svg">
<circle cx="1.46764" cy="1.46764" r="1.32087" transform="matrix(0 1.00032 1.00032 0 84.5625 127.978)" fill="#FFC425" stroke="#FFC425" stroke-width="0.293527"/>
<circle cx="1.46764" cy="1.46764" r="1.32087" transform="matrix(0 1.00032 1.00032 0 122.039 108.034)" fill="#FFC425" stroke="#FFC425" stroke-width="0.293527"/>
<circle cx="1.46764" cy="1.46764" r="1.32087" transform="matrix(0 1.00032 1.00032 0 150.048 77.0244)" fill="#FFC425" stroke="#FFC425" stroke-width="0.293527"/>
<circle cx="1.46764" cy="1.46764" r="1.32087" transform="matrix(0 1.00032 1.00032 0 147.104 154.404)" fill="#FFC425" stroke="#FFC425" stroke-width="0.293527"/>
<circle cx="1.46764" cy="1.46764" r="1.32087" transform="matrix(0 1.00032 1.00032 0 96.601 198.447)" fill="#FFC425" stroke="#FFC425" stroke-width="0.293527"/>
<circle cx="1.46764" cy="1.46764" r="1.32087" transform="matrix(0 1.00032 1.00032 0 25.8386 100.671)" fill="#FFC425" stroke="#FFC425" stroke-width="0.293527"/>
<circle cx="1.46764" cy="1.46764" r="1.32087" transform="matrix(0 1.00032 1.00032 0 62.8347 49.5812)" fill="#FFC425" stroke="#FFC425" stroke-width="0.293527"/>
</svg>
