<svg width="18" height="18" viewBox="0 0 18 18" fill="none" xmlns="http://www.w3.org/2000/svg">
<g clip-path="url(#clip0_2_1752)">
<path d="M8.99989 1.62068C11.4046 1.62068 11.6893 1.63123 12.635 1.67342C13.5139 1.71209 13.9885 1.85974 14.3049 1.98279C14.7233 2.14451 15.0256 2.34138 15.3385 2.65427C15.6549 2.97067 15.8483 3.26949 16.01 3.68785C16.133 4.00425 16.2807 4.48237 16.3193 5.35775C16.3615 6.30696 16.3721 6.59172 16.3721 8.99286C16.3721 11.3975 16.3615 11.6823 16.3193 12.628C16.2807 13.5069 16.133 13.9815 16.01 14.2979C15.8483 14.7162 15.6514 15.0186 15.3385 15.3315C15.0221 15.6479 14.7233 15.8412 14.3049 16.0029C13.9885 16.126 13.5104 16.2736 12.635 16.3123C11.6858 16.3545 11.401 16.365 8.99989 16.365C6.59524 16.365 6.31047 16.3545 5.36478 16.3123C4.48589 16.2736 4.01128 16.126 3.69488 16.0029C3.27652 15.8412 2.97418 15.6443 2.6613 15.3315C2.34489 15.0151 2.15154 14.7162 1.98982 14.2979C1.86677 13.9815 1.71912 13.5034 1.68045 12.628C1.63826 11.6788 1.62772 11.394 1.62772 8.99286C1.62772 6.5882 1.63826 6.30344 1.68045 5.35775C1.71912 4.47885 1.86677 4.00425 1.98982 3.68785C2.15154 3.26949 2.34841 2.96715 2.6613 2.65427C2.9777 2.33786 3.27652 2.14451 3.69488 1.98279C4.01128 1.85974 4.4894 1.71209 5.36478 1.67342C6.31047 1.63123 6.59524 1.62068 8.99989 1.62068ZM8.99989 0C6.55656 0 6.25071 0.0105467 5.29095 0.0527338C4.33471 0.0949208 3.6773 0.249606 3.10778 0.471088C2.51364 0.703117 2.01091 1.00897 1.5117 1.5117C1.00897 2.01091 0.703117 2.51364 0.471088 3.10426C0.249606 3.6773 0.0949208 4.3312 0.0527338 5.28744C0.0105468 6.25071 0 6.55656 0 8.99989C0 11.4432 0.0105468 11.7491 0.0527338 12.7088C0.0949208 13.6651 0.249606 14.3225 0.471088 14.892C0.703117 15.4861 1.00897 15.9889 1.5117 16.4881C2.01091 16.9873 2.51364 17.2967 3.10426 17.5252C3.6773 17.7467 4.3312 17.9014 5.28744 17.9435C6.24719 17.9857 6.55305 17.9963 8.99638 17.9963C11.4397 17.9963 11.7456 17.9857 12.7053 17.9435C13.6616 17.9014 14.319 17.7467 14.8885 17.5252C15.4791 17.2967 15.9818 16.9873 16.4811 16.4881C16.9803 15.9889 17.2896 15.4861 17.5182 14.8955C17.7396 14.3225 17.8943 13.6686 17.9365 12.7124C17.9787 11.7526 17.9892 11.4467 17.9892 9.00341C17.9892 6.56008 17.9787 6.25422 17.9365 5.29447C17.8943 4.33823 17.7396 3.68082 17.5182 3.11129C17.2967 2.51364 16.9908 2.01091 16.4881 1.5117C15.9889 1.01249 15.4861 0.703117 14.8955 0.474604C14.3225 0.253122 13.6686 0.0984363 12.7124 0.0562493C11.7491 0.0105468 11.4432 0 8.99989 0Z" fill="white"/>
<path d="M8.9999 4.37708C6.44759 4.37708 4.37691 6.44776 4.37691 9.00007C4.37691 11.5524 6.44759 13.6231 8.9999 13.6231C11.5522 13.6231 13.6229 11.5524 13.6229 9.00007C13.6229 6.44776 11.5522 4.37708 8.9999 4.37708ZM8.9999 11.9989C7.34406 11.9989 6.00111 10.6559 6.00111 9.00007C6.00111 7.34423 7.34406 6.00128 8.9999 6.00128C10.6557 6.00128 11.9987 7.34423 11.9987 9.00007C11.9987 10.6559 10.6557 11.9989 8.9999 11.9989Z" fill="white"/>
<path d="M14.885 4.19447C14.885 4.79212 14.3998 5.27376 13.8057 5.27376C13.208 5.27376 12.7264 4.78861 12.7264 4.19447C12.7264 3.59682 13.2116 3.11519 13.8057 3.11519C14.3998 3.11519 14.885 3.60034 14.885 4.19447Z" fill="white"/>
</g>
<defs>
<clipPath id="clip0_2_1752">
<rect width="17.8929" height="17.8929" fill="white" transform="scale(1.00598)"/>
</clipPath>
</defs>
</svg>
