<svg width="20" height="20" viewBox="0 0 20 20" fill="none" xmlns="http://www.w3.org/2000/svg">
<g clip-path="url(#clip0_0_68)">
<path d="M19.995 19.9999V19.999H20V12.664C20 9.07569 19.2275 6.31152 15.0324 6.31152C13.0158 6.31152 11.6624 7.41819 11.1099 8.46736H11.0516V6.64652H7.0741V19.999H11.2158V13.3874C11.2158 11.6465 11.5458 9.96319 13.7016 9.96319C15.8258 9.96319 15.8574 11.9499 15.8574 13.499V19.9999H19.995Z" fill="white"/>
<path d="M0.329956 6.64746H4.47662V20H0.329956V6.64746Z" fill="white"/>
<path d="M2.40167 0C1.07583 0 0 1.07583 0 2.40167C0 3.7275 1.07583 4.82583 2.40167 4.82583C3.7275 4.82583 4.80333 3.7275 4.80333 2.40167C4.8025 1.07583 3.72667 0 2.40167 0V0Z" fill="white"/>
</g>
<defs>
<clipPath id="clip0_0_68">
<rect width="20" height="20" fill="white"/>
</clipPath>
</defs>
</svg>
