<svg width="16" height="16" viewBox="0 0 16 16" fill="none" xmlns="http://www.w3.org/2000/svg">
<g clip-path="url(#clip0_3_2181)">
<path fill-rule="evenodd" clip-rule="evenodd" d="M11.0377 4.18009C10.2467 3.4257 9.19111 3.01473 8.09894 3.03162C6.10038 3.03162 4.40301 4.37994 3.7978 6.19553V6.19557C3.4769 7.147 3.4769 8.17725 3.7978 9.12868H3.80061C4.40862 10.9415 6.10318 12.2898 8.10175 12.2898C9.13341 12.2898 10.0191 12.0259 10.7055 11.5598V11.5579C11.5134 11.0231 12.0651 10.1815 12.2368 9.23003H8.09895V6.28003H15.3248C15.4149 6.79234 15.4571 7.31591 15.4571 7.83666C15.4571 10.1667 14.6244 12.1366 13.1755 13.4709L13.177 13.472C11.9075 14.643 10.1651 15.3214 8.09894 15.3214C5.20242 15.3214 2.55361 13.6888 1.25313 11.1019V11.1019C0.166596 8.93726 0.166599 6.38698 1.25314 4.22234H1.25316L1.25313 4.22232C2.55361 1.63262 5.20242 -1.2089e-05 8.09894 -1.2089e-05C10.0018 -0.0225312 11.8399 0.69245 13.2248 1.99293L11.0377 4.18009Z" fill="#EE7639"/>
</g>
<defs>
<clipPath id="clip0_3_2181">
<rect width="15.3214" height="15.3214" fill="white" transform="translate(0.285645)"/>
</clipPath>
</defs>
</svg>
