<svg width="19" height="18" viewBox="0 0 19 18" fill="none" xmlns="http://www.w3.org/2000/svg">
<g clip-path="url(#clip0_3_3053)">
<path d="M9.58925 1.61106C11.9796 1.61106 12.2627 1.62154 13.2028 1.66348C14.0764 1.70192 14.5482 1.8487 14.8628 1.97101C15.2786 2.13177 15.5792 2.32747 15.8902 2.6385C16.2047 2.95302 16.3969 3.25007 16.5577 3.66594C16.68 3.98046 16.8268 4.45574 16.8652 5.32592C16.9072 6.26949 16.9176 6.55256 16.9176 8.93944C16.9176 11.3298 16.9072 11.6129 16.8652 12.553C16.8268 13.4266 16.68 13.8984 16.5577 14.2129C16.3969 14.6288 16.2012 14.9294 15.8902 15.2404C15.5757 15.5549 15.2786 15.7471 14.8628 15.9079C14.5482 16.0302 14.0729 16.177 13.2028 16.2154C12.2592 16.2573 11.9761 16.2678 9.58925 16.2678C7.19888 16.2678 6.91581 16.2573 5.97573 16.2154C5.10206 16.177 4.63027 16.0302 4.31575 15.9079C3.89988 15.7471 3.59934 15.5514 3.28831 15.2404C2.97379 14.9259 2.78158 14.6288 2.62082 14.2129C2.49851 13.8984 2.35173 13.4231 2.31329 12.553C2.27135 11.6094 2.26087 11.3263 2.26087 8.93944C2.26087 6.54907 2.27135 6.26599 2.31329 5.32592C2.35173 4.45225 2.49851 3.98046 2.62082 3.66594C2.78158 3.25007 2.97728 2.94953 3.28831 2.6385C3.60283 2.32397 3.89988 2.13177 4.31575 1.97101C4.63027 1.8487 5.10555 1.70192 5.97573 1.66348C6.91581 1.62154 7.19888 1.61106 9.58925 1.61106ZM9.58925 0C7.16044 0 6.8564 0.0104841 5.90234 0.0524205C4.95179 0.0943569 4.29828 0.248124 3.73214 0.46829C3.14153 0.69894 2.64179 1.00298 2.14554 1.50272C1.6458 1.99897 1.34176 2.49871 1.11111 3.08582C0.890946 3.65545 0.737179 4.30547 0.695243 5.25603C0.653306 6.21357 0.642822 6.51761 0.642822 8.94643C0.642822 11.3752 0.653306 11.6793 0.695243 12.6333C0.737179 13.5839 0.890946 14.2374 1.11111 14.8035C1.34176 15.3941 1.6458 15.8939 2.14554 16.3901C2.64179 16.8864 3.14153 17.1939 3.72864 17.4211C4.29828 17.6412 4.94829 17.795 5.89885 17.8369C6.8529 17.8789 7.15694 17.8894 9.58576 17.8894C12.0146 17.8894 12.3186 17.8789 13.2727 17.8369C14.2232 17.795 14.8767 17.6412 15.4429 17.4211C16.03 17.1939 16.5297 16.8864 17.026 16.3901C17.5222 15.8939 17.8298 15.3941 18.0569 14.807C18.2771 14.2374 18.4308 13.5874 18.4728 12.6368C18.5147 11.6828 18.5252 11.3787 18.5252 8.94992C18.5252 6.52111 18.5147 6.21707 18.4728 5.26302C18.4308 4.31246 18.2771 3.65895 18.0569 3.09281C17.8367 2.49871 17.5327 1.99897 17.033 1.50272C16.5367 1.00647 16.037 0.69894 15.4499 0.471784C14.8802 0.251618 14.2302 0.0978516 13.2797 0.0559152C12.3221 0.0104841 12.0181 0 9.58925 0Z" fill="#EE7639"/>
<path d="M9.5893 4.35107C7.05215 4.35107 4.99377 6.40945 4.99377 8.9466C4.99377 11.4838 7.05215 13.5421 9.5893 13.5421C12.1265 13.5421 14.1848 11.4838 14.1848 8.9466C14.1848 6.40945 12.1265 4.35107 9.5893 4.35107ZM9.5893 11.9276C7.9433 11.9276 6.60833 10.5926 6.60833 8.9466C6.60833 7.3006 7.9433 5.96562 9.5893 5.96562C11.2353 5.96562 12.5703 7.3006 12.5703 8.9466C12.5703 10.5926 11.2353 11.9276 9.5893 11.9276Z" fill="#EE7639"/>
<path d="M15.4394 4.16955C15.4394 4.76365 14.9572 5.24243 14.3666 5.24243C13.7725 5.24243 13.2937 4.76016 13.2937 4.16955C13.2937 3.57545 13.776 3.09668 14.3666 3.09668C14.9572 3.09668 15.4394 3.57895 15.4394 4.16955Z" fill="#EE7639"/>
</g>
<defs>
<clipPath id="clip0_3_3053">
<rect width="17.8929" height="17.8929" fill="white" transform="translate(0.642822)"/>
</clipPath>
</defs>
</svg>
