<svg width="16" height="16" viewBox="0 0 16 16" fill="none" xmlns="http://www.w3.org/2000/svg">
<g clip-path="url(#clip0_3_2182)">
<path d="M15.776 4.59646C15.776 4.59646 15.6264 3.54012 15.1655 3.07629C14.582 2.46582 13.9296 2.46283 13.6304 2.42692C11.4878 2.27131 8.27088 2.27131 8.27088 2.27131H8.2649C8.2649 2.27131 5.048 2.27131 2.90539 2.42692C2.60615 2.46283 1.95379 2.46582 1.37026 3.07629C0.909417 3.54012 0.762786 4.59646 0.762786 4.59646C0.762786 4.59646 0.607178 5.83833 0.607178 7.07721V8.23829C0.607178 9.47717 0.759794 10.719 0.759794 10.719C0.759794 10.719 0.909417 11.7754 1.36726 12.2392C1.9508 12.8497 2.71687 12.8287 3.05801 12.8946C4.28492 13.0113 8.26789 13.0472 8.26789 13.0472C8.26789 13.0472 11.4878 13.0412 13.6304 12.8886C13.9296 12.8527 14.582 12.8497 15.1655 12.2392C15.6264 11.7754 15.776 10.719 15.776 10.719C15.776 10.719 15.9286 9.48016 15.9286 8.23829V7.07721C15.9286 5.83833 15.776 4.59646 15.776 4.59646ZM6.68488 9.64774V5.34158L10.8235 7.50214L6.68488 9.64774Z" fill="#EE7639"/>
</g>
<defs>
<clipPath id="clip0_3_2182">
<rect width="15.3214" height="15.3214" fill="white" transform="translate(0.607178)"/>
</clipPath>
</defs>
</svg>
