<svg width="16" height="16" viewBox="0 0 16 16" fill="none" xmlns="http://www.w3.org/2000/svg">
<g clip-path="url(#clip0_3_2177)">
<path d="M15.3214 7.66071C15.3214 3.42982 11.8916 0 7.66071 0C3.42982 0 0 3.42982 0 7.66071C0 11.4843 2.8014 14.6537 6.46373 15.2284V9.87514H4.51862V7.66071H6.46373V5.97296C6.46373 4.053 7.60745 2.99247 9.35729 2.99247C10.1952 2.99247 11.0721 3.14209 11.0721 3.14209V5.02734H10.1062C9.15455 5.02734 8.8577 5.61791 8.8577 6.22433V7.66071H10.9824L10.6427 9.87514H8.8577V15.2284C12.52 14.6537 15.3214 11.4843 15.3214 7.66071Z" fill="#EE7639"/>
</g>
<defs>
<clipPath id="clip0_3_2177">
<rect width="15.3214" height="15.3214" fill="white"/>
</clipPath>
</defs>
</svg>
