<svg width="16" height="16" viewBox="0 0 16 16" fill="none" xmlns="http://www.w3.org/2000/svg">
<g clip-path="url(#clip0_3_2179)">
<path d="M8.30354 1.37953C10.3504 1.37953 10.5928 1.3885 11.3977 1.42441C12.1459 1.45733 12.5498 1.58301 12.8192 1.68775C13.1753 1.8254 13.4326 1.99298 13.699 2.25931C13.9683 2.52863 14.1329 2.78299 14.2705 3.1391C14.3753 3.40842 14.5009 3.81539 14.5339 4.56052C14.5698 5.36848 14.5787 5.61087 14.5787 7.65473C14.5787 9.70158 14.5698 9.94397 14.5339 10.7489C14.5009 11.4971 14.3753 11.901 14.2705 12.1704C14.1329 12.5265 13.9653 12.7838 13.699 13.0501C13.4296 13.3195 13.1753 13.4841 12.8192 13.6217C12.5498 13.7264 12.1429 13.8521 11.3977 13.885C10.5898 13.921 10.3474 13.9299 8.30354 13.9299C6.25669 13.9299 6.0143 13.921 5.20933 13.885C4.46121 13.8521 4.05723 13.7264 3.7879 13.6217C3.4318 13.4841 3.17445 13.3165 2.90812 13.0501C2.6388 12.7808 2.47421 12.5265 2.33656 12.1704C2.23182 11.901 2.10614 11.4941 2.07322 10.7489C2.03731 9.94097 2.02833 9.69858 2.02833 7.65473C2.02833 5.60788 2.03731 5.36549 2.07322 4.56052C2.10614 3.8124 2.23182 3.40842 2.33656 3.1391C2.47421 2.78299 2.64179 2.52564 2.90812 2.25931C3.17744 1.98999 3.4318 1.8254 3.7879 1.68775C4.05723 1.58301 4.4642 1.45733 5.20933 1.42441C6.0143 1.3885 6.25669 1.37953 8.30354 1.37953ZM8.30354 0C6.22377 0 5.96343 0.0089774 5.14648 0.044887C4.33253 0.0807966 3.77294 0.212465 3.28816 0.40099C2.78244 0.598493 2.35451 0.858838 1.92958 1.28676C1.50166 1.71169 1.24132 2.13961 1.04381 2.64235C0.855287 3.13012 0.723619 3.68672 0.687709 4.50067C0.6518 5.3206 0.642822 5.58095 0.642822 7.66071C0.642822 9.74048 0.6518 10.0008 0.687709 10.8178C0.723619 11.6317 0.855287 12.1913 1.04381 12.6761C1.24132 13.1818 1.50166 13.6097 1.92958 14.0347C2.35451 14.4596 2.78244 14.7229 3.28517 14.9174C3.77294 15.106 4.32954 15.2376 5.14349 15.2735C5.96043 15.3095 6.22078 15.3184 8.30054 15.3184C10.3803 15.3184 10.6407 15.3095 11.4576 15.2735C12.2715 15.2376 12.8311 15.106 13.3159 14.9174C13.8187 14.7229 14.2466 14.4596 14.6715 14.0347C15.0964 13.6097 15.3598 13.1818 15.5543 12.6791C15.7428 12.1913 15.8745 11.6347 15.9104 10.8208C15.9463 10.0038 15.9553 9.74347 15.9553 7.66371C15.9553 5.58394 15.9463 5.3236 15.9104 4.50665C15.8745 3.6927 15.7428 3.13311 15.5543 2.64833C15.3658 2.13961 15.1054 1.71169 14.6775 1.28676C14.2526 0.86183 13.8246 0.598493 13.3219 0.403983C12.8341 0.215458 12.2775 0.0837891 11.4636 0.0478795C10.6436 0.0089774 10.3833 0 8.30354 0Z" fill="#EE7639"/>
<path d="M8.3035 3.72562C6.13097 3.72562 4.36841 5.48818 4.36841 7.66071C4.36841 9.83324 6.13097 11.5958 8.3035 11.5958C10.476 11.5958 12.2386 9.83324 12.2386 7.66071C12.2386 5.48818 10.476 3.72562 8.3035 3.72562ZM8.3035 10.2133C6.89405 10.2133 5.75093 9.07017 5.75093 7.66071C5.75093 6.25126 6.89405 5.10814 8.3035 5.10814C9.71295 5.10814 10.8561 6.25126 10.8561 7.66071C10.8561 9.07017 9.71295 10.2133 8.3035 10.2133Z" fill="#EE7639"/>
<path d="M13.313 3.56998C13.313 4.0787 12.9 4.48867 12.3943 4.48867C11.8856 4.48867 11.4756 4.07571 11.4756 3.56998C11.4756 3.06126 11.8885 2.65129 12.3943 2.65129C12.9 2.65129 13.313 3.06426 13.313 3.56998Z" fill="#EE7639"/>
</g>
<defs>
<clipPath id="clip0_3_2179">
<rect width="15.3214" height="15.3214" fill="white" transform="translate(0.642822)"/>
</clipPath>
</defs>
</svg>
