<svg width="16" height="16" viewBox="0 0 16 16" fill="none" xmlns="http://www.w3.org/2000/svg">
<g clip-path="url(#clip0_3_2178)">
<path d="M5.1415 13.8851C10.9217 13.8851 14.0842 9.09503 14.0842 4.94239C14.0842 4.80773 14.0812 4.67007 14.0752 4.53541C14.6904 4.09052 15.2213 3.53945 15.643 2.90811C15.07 3.16302 14.4617 3.3295 13.8388 3.40187C14.4947 3.00873 14.9858 2.39112 15.221 1.66354C14.604 2.02921 13.9292 2.28715 13.2256 2.42632C12.7516 1.9226 12.1248 1.58907 11.4421 1.47731C10.7595 1.36555 10.0591 1.48178 9.44911 1.80803C8.83916 2.13428 8.35366 2.65237 8.06769 3.28222C7.78172 3.91206 7.7112 4.61857 7.86704 5.29251C6.61768 5.22981 5.39544 4.90526 4.27956 4.3399C3.16368 3.77453 2.17906 2.98097 1.38954 2.01067C0.98827 2.70251 0.86548 3.52119 1.04613 4.30031C1.22678 5.07943 1.69731 5.76054 2.3621 6.20521C1.86301 6.18936 1.37487 6.05499 0.937981 5.81319V5.8521C0.937534 6.57813 1.18853 7.28192 1.64831 7.84382C2.10809 8.40573 2.74827 8.79107 3.46003 8.93434C2.99771 9.06083 2.51249 9.07926 2.0419 8.9882C2.24275 9.6126 2.63352 10.1587 3.15968 10.5503C3.68584 10.9419 4.32114 11.1595 4.97691 11.1727C3.86361 12.0472 2.48835 12.5216 1.07264 12.5193C0.821578 12.5189 0.570761 12.5035 0.321533 12.4732C1.75974 13.3959 3.43276 13.886 5.1415 13.8851Z" fill="#EE7639"/>
</g>
<defs>
<clipPath id="clip0_3_2178">
<rect width="15.3214" height="15.3214" fill="white" transform="translate(0.321533)"/>
</clipPath>
</defs>
</svg>
