<svg width="16" height="16" viewBox="0 0 16 16" fill="none" xmlns="http://www.w3.org/2000/svg">
<g clip-path="url(#clip0_2_883)">
<path fill-rule="evenodd" clip-rule="evenodd" d="M11.2282 4.36523C10.4022 3.57743 9.29989 3.14825 8.15934 3.16589C6.07226 3.16589 4.29972 4.57392 3.66771 6.46992V6.46997C3.3326 7.46354 3.3326 8.53941 3.6677 9.53298H3.67064C4.30558 11.4261 6.07519 12.8341 8.16228 12.8341C9.23963 12.8341 10.1645 12.5585 10.8814 12.0718V12.0698C11.725 11.5113 12.3012 10.6324 12.4805 9.63882H8.15935V6.55816H15.7052C15.7993 7.09316 15.8434 7.63992 15.8434 8.18374C15.8434 10.617 14.9738 12.6742 13.4607 14.0675L13.4623 14.0687C12.1366 15.2916 10.317 16 8.15934 16C5.13454 16 2.36841 14.2951 1.01034 11.5936V11.5936C-0.124321 9.33308 -0.124318 6.66985 1.01035 4.40934H1.01036L1.01034 4.40932C2.36841 1.70493 5.13454 -1.26244e-05 8.15934 -1.26244e-05C10.1465 -0.0235291 12.066 0.723118 13.5123 2.08119L11.2282 4.36523Z" fill="white"/>
</g>
<defs>
<clipPath id="clip0_2_883">
<rect width="15.3214" height="15.3214" fill="white" transform="scale(1.04429)"/>
</clipPath>
</defs>
</svg>
