<svg width="16" height="16" viewBox="0 0 16 16" fill="none" xmlns="http://www.w3.org/2000/svg">
<g clip-path="url(#clip0_2_884)">
<path d="M15.8406 4.80003C15.8406 4.80003 15.6844 3.69691 15.2031 3.21253C14.5938 2.57503 13.9125 2.57191 13.6 2.53441C11.3625 2.37191 8.00313 2.37191 8.00313 2.37191H7.99687C7.99687 2.37191 4.6375 2.37191 2.4 2.53441C2.0875 2.57191 1.40625 2.57503 0.796875 3.21253C0.315625 3.69691 0.1625 4.80003 0.1625 4.80003C0.1625 4.80003 0 6.09691 0 7.39066V8.60316C0 9.89691 0.159375 11.1938 0.159375 11.1938C0.159375 11.1938 0.315625 12.2969 0.79375 12.7813C1.40313 13.4188 2.20313 13.3969 2.55938 13.4657C3.84063 13.5875 8 13.625 8 13.625C8 13.625 11.3625 13.6188 13.6 13.4594C13.9125 13.4219 14.5938 13.4188 15.2031 12.7813C15.6844 12.2969 15.8406 11.1938 15.8406 11.1938C15.8406 11.1938 16 9.90003 16 8.60316V7.39066C16 6.09691 15.8406 4.80003 15.8406 4.80003ZM6.34688 10.075V5.57816L10.6687 7.83441L6.34688 10.075Z" fill="white"/>
</g>
<defs>
<clipPath id="clip0_2_884">
<rect width="15.3214" height="15.3214" fill="white" transform="scale(1.04429)"/>
</clipPath>
</defs>
</svg>
