<svg width="17" height="16" viewBox="0 0 17 16" fill="none" xmlns="http://www.w3.org/2000/svg">
<g clip-path="url(#clip0_3_2180)">
<path d="M15.1516 0H2.09551C1.47008 0 0.964355 0.493757 0.964355 1.10422V14.2142C0.964355 14.8247 1.47008 15.3214 2.09551 15.3214H15.1516C15.7771 15.3214 16.2858 14.8247 16.2858 14.2172V1.10422C16.2858 0.493757 15.7771 0 15.1516 0ZM5.50991 13.0561H3.23564V5.74254H5.50991V13.0561ZM4.37277 4.74605C3.64261 4.74605 3.0531 4.15654 3.0531 3.42937C3.0531 2.7022 3.64261 2.11268 4.37277 2.11268C5.09994 2.11268 5.68946 2.7022 5.68946 3.42937C5.68946 4.15354 5.09994 4.74605 4.37277 4.74605ZM14.0205 13.0561H11.7492V9.50108C11.7492 8.65421 11.7342 7.56196 10.5672 7.56196C9.38515 7.56196 9.20561 8.48663 9.20561 9.44123V13.0561H6.93732V5.74254H9.11583V6.74203H9.14576C9.448 6.16747 10.1901 5.56 11.2943 5.56C13.5956 5.56 14.0205 7.07419 14.0205 9.04323V13.0561Z" fill="#EE7639"/>
</g>
<defs>
<clipPath id="clip0_3_2180">
<rect width="15.3214" height="15.3214" fill="white" transform="translate(0.964355)"/>
</clipPath>
</defs>
</svg>
