<svg width="14" height="15" viewBox="0 0 14 15" fill="none" xmlns="http://www.w3.org/2000/svg">
<path d="M4.32299 6.51048L8.04312 10.2054C8.44179 9.74386 10.9659 7.03784 12.2277 10.734C12.2277 10.734 12.095 12.6478 9.37125 12.6478C7.44541 12.6478 5.45264 10.3381 4.05759 9.01802C2.86216 7.89581 1.93213 6.44413 1.93213 5.12401C1.93213 2.41856 3.7922 2.35221 3.7922 2.35221C8.04312 3.80389 4.32356 6.51048 4.32356 6.51048" fill="#EE7639" fill-opacity="0.16"/>
<path d="M4.32299 6.51048L8.04312 10.2054C8.44179 9.74386 10.9659 7.03784 12.2277 10.734C12.2277 10.734 12.095 12.6478 9.37125 12.6478C7.44541 12.6478 5.45264 10.3381 4.05759 9.01802C2.86216 7.89581 1.93213 6.44413 1.93213 5.12401C1.93213 2.41856 3.7922 2.35221 3.7922 2.35221C8.04312 3.80389 4.32356 6.51048 4.32356 6.51048H4.32299Z" fill="white" stroke="#EE7639" stroke-width="0.857964" stroke-miterlimit="10" stroke-linejoin="round"/>
</svg>
