<svg width="22" height="22" viewBox="0 0 22 22" fill="none" xmlns="http://www.w3.org/2000/svg">
<path d="M22 10.9967C22.0025 11.319 21.9045 11.6342 21.7196 11.8983C21.5347 12.1624 21.2722 12.3623 20.9684 12.4703L14.7358 14.7368L12.4703 20.9684C12.3587 21.2692 12.1576 21.5287 11.8942 21.7119C11.6307 21.8951 11.3175 21.9933 10.9967 21.9933C10.6758 21.9933 10.3626 21.8951 10.0991 21.7119C9.83571 21.5287 9.63466 21.2692 9.523 20.9684L7.25651 14.7299L1.0249 12.4703C0.724078 12.3587 0.46463 12.1576 0.281417 11.8942C0.0982032 11.6307 0 11.3175 0 10.9967C0 10.6758 0.0982032 10.3626 0.281417 10.0991C0.46463 9.83571 0.724078 9.63466 1.0249 9.523L7.26339 7.25651L9.523 1.0249C9.63466 0.724078 9.83571 0.46463 10.0991 0.281417C10.3626 0.0982032 10.6758 0 10.9967 0C11.3175 0 11.6307 0.0982032 11.8942 0.281417C12.1576 0.46463 12.3587 0.724078 12.4703 1.0249L14.7368 7.26339L20.9684 9.523C21.2722 9.63099 21.5347 9.83094 21.7196 10.095C21.9045 10.3591 22.0025 10.6743 22 10.9967Z" fill="#EE7639"/>
</svg>
