<svg width="9" height="10" viewBox="0 0 9 10" fill="none" xmlns="http://www.w3.org/2000/svg">
<path opacity="0.3" d="M4.4748 0C5.66159 0 6.79978 0.471451 7.63897 1.31064C8.47815 2.14983 8.9496 3.28801 8.9496 4.4748C8.9496 6.00697 8.11431 7.25276 7.24918 8.13817C6.90528 8.48657 6.53572 8.80866 6.14361 9.10175C5.7892 9.36785 4.97896 9.86664 4.97896 9.86664C4.82529 9.95399 4.65156 9.99991 4.4748 9.99991C4.29804 9.99991 4.12431 9.95399 3.97064 9.86664C3.56854 9.63348 3.17973 9.37812 2.806 9.10175C2.41389 8.80866 2.04433 8.48657 1.70042 8.13817C0.835296 7.25276 0 6.00697 0 4.4748C0 3.28801 0.471451 2.14983 1.31064 1.31064C2.14983 0.471451 3.28801 0 4.4748 0Z" fill="white"/>
</svg>
