<svg width="14" height="24" viewBox="0 0 14 24" fill="none" xmlns="http://www.w3.org/2000/svg">
<path d="M2.69709 11.9923C3.84999 12.9912 5.30411 13.5755 6.82766 13.6519C8.35121 13.7283 9.85649 13.2925 11.1035 12.4139C12.3506 11.5353 13.2677 10.2646 13.7085 8.80421C14.1494 7.34384 14.0887 5.77792 13.5361 4.35605C12.9835 2.93419 11.9709 1.73823 10.6596 0.958826C9.34823 0.179418 7.81373 -0.138577 6.30067 0.0555312C4.7876 0.249639 3.38307 0.944675 2.31095 2.02985C1.23883 3.11502 0.560842 4.52787 0.385061 6.04317C-0.222829 9.13385 -0.215999 12.817 1.17737 16.1177C2.64928 19.6012 5.61872 22.5382 10.6884 23.8649C10.8517 23.9093 11.0222 23.9209 11.1899 23.8991C11.3577 23.8772 11.5195 23.8224 11.6659 23.7376C11.8124 23.6529 11.9406 23.54 12.0431 23.4054C12.1457 23.2708 12.2206 23.1173 12.2634 22.9536C12.3063 22.7899 12.3163 22.6194 12.2929 22.4518C12.2694 22.2842 12.213 22.123 12.1269 21.9774C12.0408 21.8317 11.9267 21.7046 11.7912 21.6033C11.6556 21.502 11.5014 21.4286 11.3373 21.3873C7.01549 20.2552 4.69151 17.8526 3.53721 15.1205C3.12088 14.1192 2.83841 13.0674 2.69709 11.9923Z" fill="#EE7639"/>
</svg>
