<svg width="14" height="7" viewBox="0 0 14 7" fill="none" xmlns="http://www.w3.org/2000/svg">
<path d="M1.08674 0.18394L6.55229 5.56316C6.67154 5.68113 6.83251 5.74731 7.00026 5.74731C7.16801 5.74731 7.32899 5.68113 7.44824 5.56316L12.9138 0.185107C13.0338 0.0671913 13.1953 0.00111914 13.3635 0.00111914C13.5317 0.00111914 13.6932 0.0671913 13.8132 0.185107C13.8723 0.24271 13.9193 0.311558 13.9513 0.387594C13.9834 0.46363 13.9999 0.545315 13.9999 0.627834C13.9999 0.710353 13.9834 0.792037 13.9513 0.868073C13.9193 0.944108 13.8723 1.01296 13.8132 1.07056L8.34886 6.44861C7.98893 6.802 7.50467 7 7.00026 7C6.49585 7 6.01159 6.802 5.65167 6.44861L0.187288 1.07056C0.128022 1.01294 0.0809121 0.944018 0.0487433 0.867874C0.0165744 0.791731 0 0.70991 0 0.62725C0 0.54459 0.0165744 0.46277 0.0487433 0.386626C0.0809121 0.310483 0.128022 0.241561 0.187288 0.18394C0.30728 0.0660242 0.468782 -4.79343e-05 0.637014 -4.79343e-05C0.805246 -4.79343e-05 0.966749 0.0660242 1.08674 0.18394Z" fill="white"/>
</svg>
