<svg width="9" height="8" viewBox="0 0 9 8" fill="none" xmlns="http://www.w3.org/2000/svg">
<path d="M1.50072 5.04286C1.6412 5.00189 1.7922 5.0184 1.9205 5.08876C2.0488 5.15912 2.1439 5.27757 2.18487 5.41804C2.22585 5.55852 2.20934 5.70952 2.13898 5.83782C2.06862 5.96613 1.95017 6.06122 1.80969 6.10219C1.53383 6.18275 1.3352 6.26772 1.20775 6.34496C1.33906 6.42386 1.54651 6.51213 1.83452 6.59434C2.47178 6.77642 3.38379 6.89669 4.41388 6.89669C5.44397 6.89669 6.35599 6.77642 6.99325 6.59434C7.28181 6.51213 7.48871 6.42386 7.62002 6.34496C7.49312 6.26772 7.2945 6.18275 7.01863 6.10219C6.88036 6.05942 6.76444 5.96403 6.69585 5.83658C6.62726 5.70913 6.6115 5.55984 6.65196 5.42088C6.69242 5.28192 6.78586 5.16442 6.91214 5.0937C7.03842 5.02299 7.18743 5.00473 7.32705 5.04286C7.69561 5.15045 8.03327 5.28838 8.29259 5.46549C8.53259 5.63046 8.82777 5.91792 8.82777 6.34496C8.82777 6.77697 8.52542 7.06663 8.28155 7.2316C8.01782 7.40926 7.67299 7.54774 7.29615 7.65533C6.53586 7.87327 5.51736 8.00017 4.41388 8.00017C3.31041 8.00017 2.29191 7.87327 1.53162 7.65533C1.15478 7.54774 0.809948 7.40926 0.546218 7.2316C0.302351 7.06608 0 6.77697 0 6.34496C0 5.91792 0.295178 5.63046 0.535183 5.46549C0.794499 5.28838 1.13216 5.15045 1.50072 5.04286ZM4.41388 0C3.56421 0 3.03344 0.919743 3.45828 1.65521C3.65525 1.99673 4.01939 2.20694 4.41388 2.20694C5.26356 2.20694 5.79433 1.2872 5.36949 0.551736C5.27264 0.383991 5.13335 0.244694 4.9656 0.147844C4.79786 0.0509946 4.60758 4.92062e-06 4.41388 0Z" fill="white"/>
</svg>
