<svg width="13" height="13" viewBox="0 0 13 13" fill="none" xmlns="http://www.w3.org/2000/svg">
<g clip-path="url(#clip0_3_2162)">
<path d="M1.68948 2.27618H10.9819C11.3304 2.27618 11.6155 2.56129 11.6155 2.90976V9.45669C11.6155 10.1536 11.0453 10.7238 10.3483 10.7238H2.32306C1.62612 10.7238 1.05591 10.1536 1.05591 9.45669V2.90976C1.05591 2.56129 1.34102 2.27618 1.68948 2.27618Z" fill="#EE7639" fill-opacity="0.16"/>
<path d="M2.63984 3.8918L6.26705 7.00159C6.30401 7.03327 6.36737 7.03327 6.40433 7.00159L10.0315 3.8918M1.68948 2.27618H10.9819C11.3304 2.27618 11.6155 2.56129 11.6155 2.90976V9.45669C11.6155 10.1536 11.0453 10.7238 10.3483 10.7238H2.32306C1.62612 10.7238 1.05591 10.1536 1.05591 9.45669V2.90976C1.05591 2.56129 1.34102 2.27618 1.68948 2.27618Z" stroke="#EE7639" stroke-width="0.791967" stroke-linecap="round" stroke-linejoin="round"/>
</g>
<defs>
<clipPath id="clip0_3_2162">
<rect width="12.6715" height="12.6715" fill="white" transform="translate(0 0.164244)"/>
</clipPath>
</defs>
</svg>
