<svg width="12" height="12" viewBox="0 0 12 12" fill="none" xmlns="http://www.w3.org/2000/svg">
<path d="M1.6 2H10.4C10.73 2 11 2.27 11 2.6V8.8C11 9.46 10.46 10 9.8 10H2.2C1.54 10 1 9.46 1 8.8V2.6C1 2.27 1.27 2 1.6 2Z" fill="white" fill-opacity="0.16"/>
<path d="M2.5 3.53L5.935 6.475C5.97 6.505 6.03 6.505 6.065 6.475L9.5 3.53M1.6 2H10.4C10.73 2 11 2.27 11 2.6V8.8C11 9.46 10.46 10 9.8 10H2.2C1.54 10 1 9.46 1 8.8V2.6C1 2.27 1.27 2 1.6 2Z" stroke="#1F1E1B" stroke-width="0.75" stroke-linecap="round" stroke-linejoin="round"/>
</svg>
