<svg width="13" height="14" viewBox="0 0 13 14" fill="none" xmlns="http://www.w3.org/2000/svg">
<path d="M3.88917 6.06292L7.41217 9.56208C7.78971 9.12496 10.1801 6.56233 11.375 10.0626C11.375 10.0626 11.2493 11.875 8.66992 11.875C6.84613 11.875 4.95896 9.68775 3.63783 8.43758C2.50575 7.37483 1.625 6.00008 1.625 4.74992C1.625 2.18783 3.3865 2.125 3.3865 2.125C7.41217 3.49975 3.88971 6.06292 3.88971 6.06292" fill="white" fill-opacity="0.16"/>
<path d="M3.88917 6.06292L7.41217 9.56208C7.78971 9.12496 10.1801 6.56233 11.375 10.0626C11.375 10.0626 11.2493 11.875 8.66992 11.875C6.84613 11.875 4.95896 9.68775 3.63783 8.43758C2.50575 7.37483 1.625 6.00008 1.625 4.74992C1.625 2.18783 3.3865 2.125 3.3865 2.125C7.41217 3.49975 3.88971 6.06292 3.88971 6.06292H3.88917Z" fill="white" fill-opacity="0.1" stroke="#1F1E1B" stroke-width="0.8125" stroke-miterlimit="10" stroke-linejoin="round"/>
</svg>
