<svg width="14" height="24" viewBox="0 0 14 24" fill="none" xmlns="http://www.w3.org/2000/svg">
<path d="M11.3029 11.9923C10.15 12.9912 8.69587 13.5754 7.17233 13.6518C5.64878 13.7283 4.1435 13.2924 2.89645 12.4139C1.64939 11.5353 0.732335 10.2646 0.291466 8.80419C-0.149403 7.34382 -0.0887085 5.7779 0.463874 4.35604C1.01646 2.93418 2.02912 1.73823 3.34044 0.958823C4.65176 0.179417 6.18625 -0.138576 7.69931 0.055531C9.21238 0.249638 10.6169 0.944673 11.689 2.02985C12.7611 3.11502 13.4391 4.52786 13.6149 6.04316C14.2228 9.13383 14.216 12.817 12.8226 16.1177C11.3507 19.6011 8.38127 22.5381 3.31155 23.8649C3.14828 23.9093 2.97784 23.9209 2.81007 23.899C2.64229 23.8772 2.48051 23.8223 2.33407 23.7376C2.18762 23.6528 2.05942 23.5399 1.95687 23.4053C1.85432 23.2708 1.77944 23.1172 1.73658 22.9535C1.69372 22.7899 1.68371 22.6193 1.70714 22.4518C1.73056 22.2842 1.78696 22.1229 1.87307 21.9773C1.95918 21.8317 2.0733 21.7045 2.20883 21.6032C2.34436 21.502 2.49861 21.4285 2.66268 21.3872C6.98449 20.2551 9.30847 17.8526 10.4628 15.1205C10.8791 14.1192 11.1616 13.0674 11.3029 11.9923Z" fill="#EE7639"/>
</svg>
