<svg width="13" height="14" viewBox="0 0 13 14" fill="none" xmlns="http://www.w3.org/2000/svg">
<path d="M3.63996 9.51333C3.77787 9.47311 3.92612 9.48932 4.05208 9.55839C4.17804 9.62747 4.2714 9.74375 4.31163 9.88167C4.35185 10.0196 4.33564 10.1678 4.26657 10.2938C4.19749 10.4197 4.08121 10.5131 3.94329 10.5533C3.67246 10.6324 3.47746 10.7158 3.35233 10.7917C3.48125 10.8691 3.68492 10.9558 3.96767 11.0365C4.59329 11.2152 5.48867 11.3333 6.49996 11.3333C7.51125 11.3333 8.40663 11.2152 9.03225 11.0365C9.31554 10.9558 9.51867 10.8691 9.64758 10.7917C9.523 10.7158 9.328 10.6324 9.05717 10.5533C8.92143 10.5113 8.80762 10.4177 8.74028 10.2926C8.67295 10.1674 8.65747 10.0209 8.69719 9.88445C8.73691 9.74802 8.82864 9.63267 8.95262 9.56325C9.0766 9.49383 9.22289 9.4759 9.35996 9.51333C9.72179 9.61896 10.0533 9.75437 10.3079 9.92825C10.5435 10.0902 10.8333 10.3724 10.8333 10.7917C10.8333 11.2158 10.5365 11.5002 10.297 11.6621C10.0381 11.8365 9.69958 11.9725 9.32963 12.0781C8.58321 12.2921 7.58329 12.4167 6.49996 12.4167C5.41663 12.4167 4.41671 12.2921 3.67029 12.0781C3.30033 11.9725 2.96179 11.8365 2.70288 11.6621C2.46346 11.4996 2.16663 11.2158 2.16663 10.7917C2.16663 10.3724 2.45642 10.0902 2.69204 9.92825C2.94663 9.75437 3.27813 9.61896 3.63996 9.51333ZM6.49996 4.5625C5.66579 4.5625 5.14471 5.46546 5.56179 6.1875C5.75517 6.52279 6.11267 6.72917 6.49996 6.72917C7.33413 6.72917 7.85521 5.82621 7.43813 5.10417C7.34305 4.93948 7.20629 4.80273 7.04161 4.70765C6.87693 4.61256 6.69012 4.5625 6.49996 4.5625Z" fill="#1F1E1B"/>
<path opacity="0.3" d="M6.5 1.5835C7.57744 1.5835 8.61075 2.01151 9.37262 2.77337C10.1345 3.53524 10.5625 4.56855 10.5625 5.646C10.5625 7.037 9.80417 8.168 9.01875 8.97183C8.70653 9.28812 8.37102 9.58054 8.01504 9.84662C7.69329 10.0882 6.95771 10.541 6.95771 10.541C6.8182 10.6203 6.66047 10.662 6.5 10.662C6.33953 10.662 6.1818 10.6203 6.04229 10.541C5.67724 10.3294 5.32425 10.0975 4.98496 9.84662C4.62898 9.58054 4.29347 9.28812 3.98125 8.97183C3.19583 8.168 2.4375 7.037 2.4375 5.646C2.4375 4.56855 2.86551 3.53524 3.62738 2.77337C4.38925 2.01151 5.42256 1.5835 6.5 1.5835Z" fill="#1F1E1B"/>
</svg>
